G04 Layer_Physical_Order=2*
G04 Layer_Color=16711680*
%FSLAX25Y25*%
%MOIN*%
G70*
G01*
G75*
%ADD10C,0.01000*%
%ADD11C,0.03000*%
%ADD12C,0.10000*%
%ADD13C,0.02000*%
%ADD14R,0.05906X0.05906*%
%ADD15C,0.05906*%
%ADD16C,0.09055*%
%ADD17C,0.07874*%
%ADD18O,0.07874X0.21654*%
%ADD19O,0.07874X0.19685*%
%ADD20C,0.05000*%
%ADD21R,0.02756X0.03543*%
%ADD22R,0.09055X0.09055*%
%ADD23R,0.03150X0.03150*%
%ADD24R,0.03543X0.02756*%
%ADD25R,0.04331X0.06693*%
%ADD26R,0.03150X0.03150*%
%ADD27R,0.03150X0.03543*%
%ADD28R,0.03543X0.03150*%
%ADD29R,0.09055X0.06693*%
%ADD30R,0.06693X0.04331*%
%ADD31R,0.01772X0.06299*%
%ADD32R,0.09055X0.09055*%
%ADD33R,0.09252X0.03937*%
%ADD34R,0.09252X0.12992*%
D10*
X141000Y-83081D02*
Y-44937D01*
X131080Y-93000D02*
X141000Y-83081D01*
X132205Y-36142D02*
X141000Y-44937D01*
X130252Y-91000D02*
X138000Y-83252D01*
Y-69437D01*
X132205Y-63642D02*
X138000Y-69437D01*
X145000Y-93172D02*
Y-38419D01*
Y-93172D02*
X146828Y-95000D01*
X135166Y-28586D02*
X145000Y-38419D01*
X143000Y-94000D02*
Y-39248D01*
Y-94000D02*
X146000Y-97000D01*
X134457Y-30705D02*
X143000Y-39248D01*
X146828Y-95000D02*
X165777D01*
X146000Y-97000D02*
X164948D01*
X130705Y-30705D02*
X134457D01*
X135166Y-28586D02*
Y-13166D01*
X125000Y-25000D02*
X130705Y-30705D01*
X84000Y-93000D02*
X131080D01*
X83172Y-91000D02*
X130252D01*
X76000Y-120172D02*
Y-98172D01*
X83172Y-91000D01*
X78000Y-99000D02*
X84000Y-93000D01*
X94000Y-89000D02*
X99000Y-84000D01*
X47000Y-89000D02*
X94000D01*
X93000Y-87000D02*
X97000Y-83000D01*
X46172Y-87000D02*
X93000D01*
X60547Y-125000D02*
X74724D01*
X74219Y-121953D02*
X76000Y-120172D01*
X72500Y-121953D02*
X74219D01*
X62000Y-102000D02*
Y-98000D01*
X57756Y-106244D02*
X62000Y-102000D01*
X57756Y-109000D02*
Y-106244D01*
X53000Y-62000D02*
X59000Y-68000D01*
X145486Y-137000D02*
X168000D01*
X151571Y-133571D02*
X153000Y-135000D01*
X160993D01*
X169346Y-126647D01*
X160165Y-133000D02*
X167347Y-125818D01*
X154828Y-133000D02*
X160165D01*
X154130Y-132301D02*
X154828Y-133000D01*
X154130Y-132301D02*
Y-127760D01*
X170000Y-150000D02*
X171000Y-149000D01*
X170000Y-170000D02*
Y-150000D01*
X169346Y-126647D02*
Y-98570D01*
X165777Y-95000D02*
X169346Y-98570D01*
X167347Y-125818D02*
Y-99398D01*
X164948Y-97000D02*
X167347Y-99398D01*
X174000Y-80000D02*
Y-61953D01*
X172500Y-60453D02*
X174000Y-61953D01*
X172000Y-138657D02*
Y-131000D01*
X169657Y-141000D02*
X172000Y-138657D01*
X166000Y-141000D02*
X169657D01*
X164000Y-139000D02*
X166000Y-141000D01*
X144657Y-139000D02*
X164000D01*
X138776Y-133118D02*
X144657Y-139000D01*
X138776Y-133118D02*
Y-128106D01*
X138602Y-127933D02*
X138776Y-128106D01*
X141335Y-132849D02*
Y-127933D01*
Y-132849D02*
X145486Y-137000D01*
X141161Y-127933D02*
X141335D01*
X120000Y6297D02*
Y10000D01*
Y6297D02*
X124453Y1844D01*
Y-2453D02*
Y1844D01*
Y-2453D02*
X135166Y-13166D01*
X151571Y-133571D02*
Y-127933D01*
X151398D02*
X151571D01*
X110000Y10000D02*
X115547Y4453D01*
Y-1844D02*
Y4453D01*
Y-1844D02*
X125000Y-11297D01*
Y-25000D02*
Y-11297D01*
X153957Y-127933D02*
X154130Y-127760D01*
X70000Y-170000D02*
X72500Y-167500D01*
Y-152953D01*
X50000Y-170000D02*
Y-152953D01*
X57500D01*
X65000Y-152953D02*
X72500D01*
X30000Y-170000D02*
X35000Y-165000D01*
Y-152953D01*
X42500D01*
X10000Y-170000D02*
Y-162953D01*
X20000Y-152953D01*
X27500D01*
X72500Y-147047D02*
Y-140256D01*
X72756Y-140000D01*
X57500Y-147047D02*
Y-140256D01*
X57756Y-140000D01*
X42500Y-147047D02*
Y-140256D01*
X42756Y-140000D01*
X27500Y-147047D02*
Y-140256D01*
X27756Y-140000D01*
X65000Y-142244D02*
X67244Y-140000D01*
X65000Y-147047D02*
Y-142244D01*
X50000D02*
X52244Y-140000D01*
X50000Y-147047D02*
Y-142244D01*
X35000D02*
X37244Y-140000D01*
X35000Y-147047D02*
Y-142244D01*
X20000D02*
X22244Y-140000D01*
X20000Y-147047D02*
Y-142244D01*
X75547Y-174453D02*
X80000Y-170000D01*
X25547Y-171844D02*
X28156Y-174453D01*
X25547Y-171844D02*
Y-168156D01*
X28156Y-165547D01*
X28453D01*
X31000Y-163000D01*
Y-151047D01*
X35000Y-147047D01*
X46000Y-151047D02*
X50000Y-147047D01*
X46000Y-163000D02*
Y-151047D01*
X45000Y-164000D02*
X46000Y-163000D01*
X45000Y-174453D02*
Y-164000D01*
X28156Y-174453D02*
X45000D01*
X61000Y-151047D02*
X65000Y-147047D01*
X61000Y-162000D02*
Y-151047D01*
Y-162000D02*
X65000Y-166000D01*
Y-174453D02*
Y-166000D01*
X45000Y-174453D02*
X65000D01*
X75547D01*
X-17047Y-107500D02*
X-13484Y-111063D01*
X-22953Y-114488D02*
Y-107500D01*
X-23740Y-115276D02*
X-22953Y-114488D01*
Y-107500D02*
Y-100000D01*
X-22953Y-100000D01*
X8156Y-174453D02*
X28156D01*
X5547Y-171844D02*
X8156Y-174453D01*
X5547Y-171844D02*
Y-163453D01*
X16000Y-153000D01*
Y-151047D01*
X20000Y-147047D01*
X192500Y-129016D02*
X193760Y-130276D01*
X192500Y-129016D02*
Y-122953D01*
X185000D02*
X192500D01*
X185000Y-122953D02*
X185000Y-122953D01*
X186988Y-60453D02*
X187776Y-61240D01*
X180000Y-60453D02*
X186988D01*
X194488Y-40453D02*
X195276Y-41240D01*
X187500Y-40453D02*
X194488D01*
X180905D02*
X187500D01*
X180453Y-40000D02*
X180905Y-40453D01*
X65000Y-116047D02*
Y-111244D01*
X50000D02*
X52244Y-109000D01*
X50000Y-116047D02*
Y-111244D01*
X35000D02*
X37244Y-109000D01*
X35000Y-116047D02*
Y-111244D01*
X20000D02*
X22244Y-109000D01*
X20000Y-116047D02*
Y-111244D01*
X27500Y-116047D02*
Y-109256D01*
X42500Y-116047D02*
Y-109256D01*
X57500Y-116047D02*
Y-109256D01*
X72500Y-116047D02*
Y-109256D01*
X65000Y-121953D02*
X72500D01*
X50000D02*
X57500D01*
X35000D02*
X42500D01*
X20000D02*
X27500D01*
X143720Y-127933D02*
Y-120280D01*
X147559Y-116441D01*
Y-107244D01*
X103720Y-127933D02*
X103894Y-127760D01*
Y-121106D01*
X105059Y-119941D01*
Y-107244D01*
X153784Y-127933D02*
X153957D01*
X98602Y-132398D02*
Y-127933D01*
X159075D02*
Y-122925D01*
X161000Y-121000D01*
Y-120000D01*
X136043Y-122957D02*
X139000Y-120000D01*
X136043Y-127933D02*
Y-122957D01*
X151000Y-120000D02*
X153000D01*
X156516Y-123516D01*
Y-127933D02*
Y-123516D01*
X116342Y-127760D02*
X116516Y-127933D01*
X116342Y-127760D02*
Y-123343D01*
X113000Y-120000D02*
X116342Y-123343D01*
X111000Y-120000D02*
X113000D01*
X119075Y-120925D02*
X120000Y-120000D01*
X119075Y-127933D02*
Y-120925D01*
X96043Y-127933D02*
Y-122957D01*
X99000Y-120000D01*
X-17047Y-100000D02*
X-12000D01*
X187953Y-157500D02*
X190000Y-159547D01*
Y-170000D02*
Y-159547D01*
X180000Y-159547D02*
X182047Y-157500D01*
X180000Y-170000D02*
Y-159547D01*
X31953Y-125000D02*
X35000Y-121953D01*
X19000Y-104000D02*
X32000D01*
X47000Y-89000D01*
X18172Y-102000D02*
X31172D01*
X46172Y-87000D01*
X14000Y-123000D02*
X16000Y-125000D01*
X14000Y-123000D02*
Y-106172D01*
X18172Y-102000D01*
X16000Y-125000D02*
X31953D01*
X16000Y-117953D02*
X20000Y-121953D01*
X16000Y-117953D02*
Y-107000D01*
X19000Y-104000D01*
X57500Y-121953D02*
X60547Y-125000D01*
X97000Y-83000D02*
Y-70937D01*
X89705Y-63642D02*
X97000Y-70937D01*
X99000Y-84000D02*
Y-45437D01*
X89705Y-36142D02*
X99000Y-45437D01*
X180000Y-54547D02*
Y-50000D01*
X172500Y-54547D02*
X174953Y-57000D01*
X176547D01*
X180000Y-60453D01*
X174547Y-40000D02*
Y-37453D01*
X178000Y-34000D01*
X120437Y-59000D02*
X124000D01*
X115295Y-53858D02*
X120437Y-59000D01*
X124000D02*
X127063D01*
X132205Y-53858D01*
X124000Y-73154D02*
X132205Y-81358D01*
X115295D02*
X115795D01*
X124000Y-73154D01*
X179047Y-117047D02*
X185000D01*
X70000Y-106244D02*
X72756Y-109000D01*
X70000Y-106244D02*
Y-98000D01*
X42756Y-109000D02*
X47756Y-104000D01*
X50000D01*
X27756Y-109000D02*
X31000D01*
X35000Y-105000D01*
X42000D01*
X46000Y-101000D01*
Y-97000D01*
X50000Y-104000D02*
X52000Y-102000D01*
Y-97000D01*
X-12000Y-100000D02*
X9000Y-79000D01*
X10000D01*
X51000Y-62000D02*
X53000D01*
X124000Y-73154D02*
Y-59000D01*
X74724Y-125000D02*
X78000Y-121724D01*
Y-99000D01*
X97000Y-134000D02*
X98602Y-132398D01*
X85000Y-129000D02*
Y-127000D01*
Y-129000D02*
X90000Y-134000D01*
X97000D01*
X23756Y-136000D02*
X27756Y-140000D01*
X18000Y-136000D02*
X23756D01*
X14000Y-140000D02*
X18000Y-136000D01*
X35756Y-133000D02*
X42756Y-140000D01*
X17000Y-133000D02*
X35756D01*
X14000Y-130000D02*
X17000Y-133000D01*
X88343Y-136000D02*
X97828D01*
X82343Y-130000D02*
X88343Y-136000D01*
X79000Y-130000D02*
X82343D01*
X101161Y-131000D02*
Y-127933D01*
Y-131000D02*
X101335D01*
X97828Y-136000D02*
X101335Y-132494D01*
Y-131000D01*
X84000Y-138000D02*
X107000D01*
X111398Y-133602D01*
Y-127933D01*
X113957Y-134043D02*
Y-127933D01*
X87000Y-140000D02*
X108000D01*
X113957Y-134043D01*
X57756Y-140000D02*
X61776D01*
X65048Y-136728D01*
X74952D01*
X75831Y-137607D01*
Y-140831D02*
Y-137607D01*
Y-140831D02*
X79000Y-144000D01*
Y-145000D02*
Y-144000D01*
X85000Y-142000D02*
X87000Y-140000D01*
X72500Y-147047D02*
X76453Y-151000D01*
X85000D01*
X65000Y-111244D02*
X67244Y-109000D01*
X64953Y-116047D02*
X65000D01*
X62000Y-119000D02*
X64953Y-116047D01*
X52953Y-119000D02*
X62000D01*
X50000Y-116047D02*
X52953Y-119000D01*
X20000Y-116047D02*
X22953Y-119000D01*
X32047D01*
X35000Y-116047D01*
X35047D01*
X38000Y-119000D01*
X45775D01*
X46411Y-119636D02*
X50000Y-116047D01*
X46411Y-134167D02*
X52244Y-140000D01*
X45775Y-119000D02*
X46411Y-119636D01*
Y-134167D02*
Y-119636D01*
D11*
X150000Y-45000D02*
Y-33000D01*
X35315Y-80000D02*
X79000D01*
X185000Y-135000D02*
X202000Y-152000D01*
X174000Y-124000D02*
X185000Y-135000D01*
X152224Y-157067D02*
Y-150224D01*
X171000Y-149000D02*
X185000Y-135000D01*
X151000Y-149000D02*
X171000D01*
X167000Y-88000D02*
X174000Y-95000D01*
Y-109000D02*
Y-95000D01*
X167000Y-88000D02*
Y-50000D01*
X174000Y-124000D02*
Y-109000D01*
X-22756Y-167244D02*
X-20000Y-170000D01*
X-22756Y-167244D02*
Y-155000D01*
Y-138898D02*
X-21358Y-137500D01*
X13937Y-55000D02*
X23642D01*
X28642Y-50000D01*
X46358Y-51398D02*
Y-50000D01*
X35256Y-62500D02*
X46358Y-51398D01*
X35256Y-72441D02*
Y-62500D01*
Y-72441D02*
X35315Y-72500D01*
X33268Y-87500D02*
X35315Y-85453D01*
X24685Y-72500D02*
Y-67559D01*
X29744Y-62500D01*
X0Y-10000D02*
Y0D01*
X9685Y-19685D02*
X10000D01*
X0Y-10000D02*
X9685Y-19685D01*
X-25768Y-49232D02*
Y-30000D01*
Y-49232D02*
X-20000Y-55000D01*
X-9685D01*
Y-68315D02*
X-5500Y-72500D01*
X-9685Y-68315D02*
Y-55000D01*
X47835Y-19744D02*
X53091Y-25000D01*
X37500Y-19744D02*
X47835D01*
X27559D02*
X37500D01*
X27500Y-19685D02*
X27559Y-19744D01*
X27500Y-30315D02*
X32441D01*
X-9232Y-30000D02*
X-4232Y-25000D01*
X22185D01*
X27500Y-19685D01*
X10000Y-30315D02*
X27500D01*
X-2000Y-55000D02*
X3000Y-50000D01*
X-9685Y-55000D02*
X-2000D01*
X-25768Y-30000D02*
Y-17500D01*
X-9232D02*
X-7500D01*
X0Y-10000D01*
X80000Y-25000D02*
X90000Y-15000D01*
X76910Y-25000D02*
X80000D01*
X80945Y-34055D02*
X100000Y-15000D01*
X68055Y-15945D02*
X76910D01*
X65000Y-19000D02*
X68055Y-15945D01*
X65000Y-30000D02*
Y-19000D01*
X56000Y-39000D02*
X65000Y-30000D01*
X3000Y-37315D02*
X10000Y-30315D01*
X24768Y-96000D02*
X33268Y-87500D01*
X-10669Y-152146D02*
X-7815Y-155000D01*
X-10669Y-152146D02*
Y-115315D01*
X-3642Y-137500D02*
X2815Y-143957D01*
Y-155000D02*
Y-143957D01*
X-10000Y-167815D02*
X2815Y-155000D01*
X-10000Y-170000D02*
Y-167815D01*
X-17244Y-162756D02*
X-10000Y-170000D01*
X-17244Y-162756D02*
Y-155000D01*
X-16260Y-115276D02*
X-13484Y-112500D01*
X-3642Y-137500D02*
Y-112642D01*
X13000Y-96000D01*
X24768D01*
X-20000Y-136142D02*
Y-124724D01*
X-22756Y-155000D02*
Y-138898D01*
X215000Y-11811D02*
X239913Y13102D01*
X215000Y-21142D02*
Y-11811D01*
X204724Y-31417D02*
X215000Y-21142D01*
X204724Y-37500D02*
Y-31417D01*
X235197Y-38858D02*
X239913Y-34142D01*
X215000Y-38858D02*
X235197D01*
X215000Y-52185D02*
Y-38858D01*
Y-52185D02*
X215315Y-52500D01*
X233811Y-62000D02*
X239913Y-55898D01*
X215315Y-110000D02*
Y-103457D01*
X215000Y-103142D02*
X239913D01*
X221244Y-124898D02*
X239913D01*
X212500Y-133642D02*
X221244Y-124898D01*
X206417Y-139724D02*
X212500Y-133642D01*
X197500Y-139724D02*
X206417D01*
X233283Y-172142D02*
X239913D01*
X217815Y-165000D02*
X217858D01*
X222000Y-160858D01*
X212500Y-151358D02*
X222000Y-160858D01*
X233283Y-172142D01*
X-13484Y-112500D02*
X-10669Y-115315D01*
X16732Y-87500D02*
X24685Y-79547D01*
Y-72500D01*
X-13484Y-112500D02*
X11516Y-87500D01*
X16732D01*
X115059Y-102185D02*
X120000D01*
X110000Y-107244D02*
X115059Y-102185D01*
X105059Y-107244D02*
X110000D01*
X100000Y-102185D02*
X105059Y-107244D01*
X95059Y-102185D02*
X100000D01*
X90000Y-107244D02*
X95059Y-102185D01*
X157559D02*
X162500D01*
X152500Y-107244D02*
X157559Y-102185D01*
X147559Y-107244D02*
X152500D01*
X142500Y-102185D02*
X147559Y-107244D01*
X137559Y-102185D02*
X142500D01*
X132500Y-107244D02*
X137559Y-102185D01*
X120000D02*
X125059Y-107244D01*
X132500D01*
X136870Y-157067D02*
X137776D01*
X152224D02*
X153130D01*
X136870D02*
Y-149870D01*
X113000Y-156937D02*
Y-149000D01*
X112870Y-157067D02*
X113000Y-156937D01*
X97776Y-151224D02*
X100000Y-149000D01*
X96870Y-157067D02*
X97776D01*
X151000Y-149000D02*
X152224Y-150224D01*
X136000Y-149000D02*
X151000D01*
X127000Y-116000D02*
Y-107386D01*
X62500Y-55315D02*
X72441D01*
X72500Y-55256D01*
X77244D01*
X80945Y-51555D01*
X67441Y-44685D02*
X72500Y-49744D01*
X62500Y-44685D02*
X67441D01*
X56815Y-39000D02*
X62500Y-44685D01*
X56000Y-39000D02*
X56815D01*
X201240Y-130276D02*
Y-118240D01*
X174000Y-109000D02*
X192000D01*
X192500Y-117047D02*
X196000Y-113547D01*
X199000Y-115685D02*
X204685Y-110000D01*
X192000Y-109000D02*
X201240Y-118240D01*
X202000Y-159815D02*
X207185Y-165000D01*
X202000Y-159815D02*
Y-152000D01*
X184016Y-50000D02*
X187776Y-53760D01*
X202185Y-50000D02*
X204685Y-52500D01*
X184016Y-50000D02*
X202185D01*
X167000D02*
Y-34000D01*
X173000Y-28000D01*
X189516D01*
X187500Y-34547D02*
X191563Y-30484D01*
X192000D01*
X189516Y-28000D02*
X192000Y-30484D01*
X195276Y-33760D01*
X167000Y-50000D02*
X184016D01*
X103000Y-8000D02*
X110000Y-15000D01*
X0Y-10000D02*
X2000Y-8000D01*
X80000D02*
Y0D01*
X2000Y-8000D02*
X80000D01*
X103000D01*
X19000Y-15000D02*
X21000D01*
X25685Y-19685D01*
X27500D01*
X33756Y-29000D02*
X34000D01*
X37000Y-32000D01*
X32441Y-30315D02*
X33756Y-29000D01*
X3000Y-43000D02*
X3685Y-42315D01*
X3000Y-50000D02*
Y-43000D01*
Y-37315D01*
X3685Y-42315D02*
X7685D01*
X11000Y-39000D01*
X56000D01*
X33756Y-29000D02*
X37500Y-25256D01*
X35315Y-85453D02*
Y-80000D01*
Y-72500D01*
X113000Y-149000D02*
X136000D01*
X136870Y-149870D01*
X100000Y-149000D02*
X113000D01*
X97776Y-157067D02*
Y-151224D01*
X-5500Y-72500D02*
X24685D01*
X46358Y-50000D02*
X51673Y-55315D01*
X62500D01*
X110000Y-15000D02*
X124000Y-29000D01*
Y-59000D02*
Y-29000D01*
X172000Y-11000D02*
X206000D01*
X150000Y-33000D02*
X172000Y-11000D01*
X197224Y-57500D02*
X199500D01*
X204000Y-62000D01*
X233811D01*
X204000Y-72142D02*
Y-62000D01*
X203000Y-73142D02*
X204000Y-72142D01*
X203000Y-90858D02*
X215283Y-103142D01*
X125547Y-157453D02*
Y-117453D01*
X127000Y-116000D01*
X125000Y-158000D02*
X125547Y-157453D01*
X80945Y-51555D02*
Y-34055D01*
D12*
X287945Y-172142D02*
X302858D01*
X315000Y-160000D01*
X330000D01*
X232039Y-148520D02*
X293480D01*
X302000Y-140000D01*
X330000D01*
X287945Y-124898D02*
X292843Y-120000D01*
X330000D01*
X232039Y-79520D02*
X232520Y-80000D01*
X330000D01*
X287945Y-103142D02*
X291087Y-100000D01*
X330000D01*
X287945Y-55898D02*
X292047Y-60000D01*
X330000D01*
X288520Y-10520D02*
X298000Y-20000D01*
X232039Y-10520D02*
X288520D01*
X298000Y-20000D02*
X330000D01*
X287945Y13102D02*
X301047Y0D01*
X330000D01*
X287945Y-34142D02*
X293803Y-40000D01*
X330000D01*
D13*
X148512Y-168512D02*
X150000Y-170000D01*
X146606Y-157067D02*
X148512D01*
Y-168512D02*
Y-157067D01*
X159075Y-169075D02*
X160000Y-170000D01*
X159075Y-169075D02*
Y-157067D01*
X156843D02*
X159075D01*
X133158Y-163157D02*
X140000Y-170000D01*
X130925Y-157067D02*
X133158D01*
Y-163157D02*
Y-157067D01*
X130000Y-170000D02*
X135000Y-175000D01*
X142004D01*
X144953Y-172052D01*
Y-166389D01*
X143394Y-164830D02*
X144953Y-166389D01*
X141488Y-157067D02*
X143394D01*
Y-164830D02*
Y-157067D01*
X116842D02*
X119075D01*
X108512Y-168512D02*
X110000Y-170000D01*
X106606Y-157067D02*
X108512D01*
Y-168512D02*
Y-157067D01*
X93158Y-163157D02*
X100000Y-170000D01*
X90925Y-157067D02*
X93158D01*
Y-163157D02*
Y-157067D01*
X90000Y-170000D02*
X94953Y-174953D01*
X102051D01*
X104953Y-172052D01*
Y-167948D01*
X103394Y-166389D02*
X104953Y-167948D01*
X101488Y-157067D02*
X103394D01*
Y-166389D02*
Y-157067D01*
X90925Y-127933D02*
X93158D01*
X106606D02*
X108512D01*
X110059Y-112815D02*
X120000D01*
X90059D02*
X100000D01*
X132559D02*
X142500D01*
X132500Y-112756D02*
X132559Y-112815D01*
X152559D02*
X162500D01*
X152500Y-112756D02*
X152559Y-112815D01*
X146606Y-127933D02*
X148512D01*
X152500Y-118500D02*
Y-112756D01*
X131583Y-127276D02*
X132500D01*
X111000Y-120000D02*
Y-113756D01*
X110000Y-121000D02*
X111000Y-120000D01*
X110000Y-122000D02*
Y-121000D01*
X108512Y-123488D02*
X110000Y-122000D01*
X108512Y-127933D02*
Y-123488D01*
X132500Y-127276D02*
Y-112756D01*
X90925Y-127933D02*
Y-113681D01*
X110000Y-112756D02*
X110059Y-112815D01*
X111000Y-113756D01*
X148512Y-122488D02*
X151000Y-120000D01*
X152500Y-118500D01*
X148512Y-127933D02*
Y-122488D01*
X119075Y-169075D02*
X120000Y-170000D01*
X119075Y-169075D02*
Y-157067D01*
X53091Y-22909D02*
X64024Y-11976D01*
X53091Y-25000D02*
Y-22909D01*
X64024Y-11976D02*
X86976D01*
X90000Y-15000D01*
D14*
D03*
X190000Y-170000D02*
D03*
X120000D02*
D03*
X160000D02*
D03*
X-10000D02*
D03*
X0D02*
D03*
Y0D02*
D03*
D15*
X100000Y-15000D02*
D03*
X110000D02*
D03*
X120000D02*
D03*
X130000D02*
D03*
X140000D02*
D03*
X180000Y-170000D02*
D03*
X170000D02*
D03*
X90000D02*
D03*
X100000D02*
D03*
X110000D02*
D03*
X130000D02*
D03*
X140000D02*
D03*
X150000D02*
D03*
X-20000D02*
D03*
X10000D02*
D03*
X20000D02*
D03*
X30000D02*
D03*
X40000D02*
D03*
X50000D02*
D03*
X60000D02*
D03*
X70000D02*
D03*
X190000Y10000D02*
D03*
Y0D02*
D03*
X180000Y10000D02*
D03*
Y0D02*
D03*
X170000Y10000D02*
D03*
Y0D02*
D03*
X160000Y10000D02*
D03*
Y0D02*
D03*
X150000Y10000D02*
D03*
Y0D02*
D03*
X140000Y10000D02*
D03*
Y0D02*
D03*
X130000Y10000D02*
D03*
Y0D02*
D03*
X120000Y10000D02*
D03*
Y0D02*
D03*
X110000Y10000D02*
D03*
Y0D02*
D03*
X100000Y10000D02*
D03*
Y0D02*
D03*
X90000Y10000D02*
D03*
Y0D02*
D03*
X80000Y10000D02*
D03*
Y0D02*
D03*
X70000Y10000D02*
D03*
Y0D02*
D03*
X60000Y10000D02*
D03*
Y0D02*
D03*
X50000Y10000D02*
D03*
Y0D02*
D03*
X40000Y10000D02*
D03*
Y0D02*
D03*
X30000Y10000D02*
D03*
Y0D02*
D03*
X20000Y10000D02*
D03*
Y0D02*
D03*
X10000Y10000D02*
D03*
Y0D02*
D03*
X0Y10000D02*
D03*
X150000Y-45000D02*
D03*
X79000Y-80000D02*
D03*
X200000Y-170000D02*
D03*
X80000D02*
D03*
X0Y-10000D02*
D03*
X151000Y-120000D02*
D03*
X161000D02*
D03*
X139000D02*
D03*
X91000D02*
D03*
X99000D02*
D03*
X111000D02*
D03*
X120000D02*
D03*
X131000D02*
D03*
X124000Y-59000D02*
D03*
X19000Y-15000D02*
D03*
X37000Y-32000D02*
D03*
X206000Y-11000D02*
D03*
X125000Y-158000D02*
D03*
D16*
X330000Y-120000D02*
D03*
Y-140000D02*
D03*
Y-160000D02*
D03*
X239913Y-172142D02*
D03*
X287945D02*
D03*
Y-124898D02*
D03*
X239913D02*
D03*
X232039Y-148520D02*
D03*
X330000Y0D02*
D03*
Y-20000D02*
D03*
Y-40000D02*
D03*
X239913Y-34142D02*
D03*
X287945D02*
D03*
Y13102D02*
D03*
X239913D02*
D03*
X232039Y-10520D02*
D03*
X239913Y-103142D02*
D03*
X287945D02*
D03*
Y-55898D02*
D03*
X239913D02*
D03*
X232039Y-79520D02*
D03*
X330000Y-60000D02*
D03*
Y-80000D02*
D03*
Y-100000D02*
D03*
D17*
X157795Y-63642D02*
D03*
Y-81358D02*
D03*
X132205Y-63642D02*
D03*
Y-81358D02*
D03*
X157795Y-36142D02*
D03*
Y-53858D02*
D03*
X132205Y-36142D02*
D03*
Y-53858D02*
D03*
X115295Y-36142D02*
D03*
Y-53858D02*
D03*
X89705Y-36142D02*
D03*
Y-53858D02*
D03*
X115295Y-63642D02*
D03*
Y-81358D02*
D03*
X89705Y-63642D02*
D03*
Y-81358D02*
D03*
D18*
X13937Y-55000D02*
D03*
D19*
X-9685D02*
D03*
D20*
X62000Y-98000D02*
D03*
X59000Y-68000D02*
D03*
X168000Y-137000D02*
D03*
X174000Y-80000D02*
D03*
X172000Y-131000D02*
D03*
X178000Y-34000D02*
D03*
X179047Y-117047D02*
D03*
X70000Y-98000D02*
D03*
X46000Y-97000D02*
D03*
X52000D02*
D03*
X10000Y-79000D02*
D03*
X51000Y-62000D02*
D03*
X82000Y-136000D02*
D03*
X79000Y-130000D02*
D03*
X85000Y-127000D02*
D03*
Y-142000D02*
D03*
X14000Y-130000D02*
D03*
Y-140000D02*
D03*
X79000Y-145000D02*
D03*
X85000Y-151000D02*
D03*
D21*
X182047Y-157500D02*
D03*
X187953D02*
D03*
X180453Y-40000D02*
D03*
X174547D02*
D03*
X-22953Y-100000D02*
D03*
X-17047D02*
D03*
X-17047Y-107500D02*
D03*
X-22953D02*
D03*
D22*
X212500Y-151358D02*
D03*
Y-133642D02*
D03*
X203000Y-90858D02*
D03*
Y-73142D02*
D03*
X215000Y-38858D02*
D03*
Y-21142D02*
D03*
D23*
X197500Y-139724D02*
D03*
X193760Y-130276D02*
D03*
X201240D02*
D03*
X-20000Y-124724D02*
D03*
X-23740Y-115276D02*
D03*
X-16260D02*
D03*
D24*
X185000Y-122953D02*
D03*
Y-117047D02*
D03*
X192500Y-117047D02*
D03*
Y-122953D02*
D03*
X172500Y-54547D02*
D03*
Y-60453D02*
D03*
X180000Y-54547D02*
D03*
Y-60453D02*
D03*
X187500Y-34547D02*
D03*
Y-40453D02*
D03*
X27500Y-116047D02*
D03*
Y-121953D02*
D03*
X42500Y-116047D02*
D03*
Y-121953D02*
D03*
X20000Y-116047D02*
D03*
Y-121953D02*
D03*
X35000Y-116047D02*
D03*
Y-121953D02*
D03*
X57500Y-116047D02*
D03*
Y-121953D02*
D03*
X50000Y-116047D02*
D03*
Y-121953D02*
D03*
X72500Y-116047D02*
D03*
Y-121953D02*
D03*
X65000Y-116047D02*
D03*
Y-121953D02*
D03*
X57500Y-147047D02*
D03*
Y-152953D02*
D03*
X65000Y-147047D02*
D03*
Y-152953D02*
D03*
X50000Y-147047D02*
D03*
Y-152953D02*
D03*
X27500Y-147047D02*
D03*
Y-152953D02*
D03*
X72500Y-147047D02*
D03*
Y-152953D02*
D03*
X20000Y-147047D02*
D03*
Y-152953D02*
D03*
X42500Y-147047D02*
D03*
Y-152953D02*
D03*
X35000Y-147047D02*
D03*
Y-152953D02*
D03*
D25*
X217815Y-165000D02*
D03*
X207185D02*
D03*
X215315Y-110000D02*
D03*
X204685D02*
D03*
X215315Y-52500D02*
D03*
X204685D02*
D03*
X35315Y-72500D02*
D03*
X24685D02*
D03*
X2815Y-155000D02*
D03*
X-7815D02*
D03*
D26*
X197224Y-57500D02*
D03*
X187776Y-61240D02*
D03*
Y-53760D02*
D03*
X204724Y-37500D02*
D03*
X195276Y-41240D02*
D03*
Y-33760D02*
D03*
D27*
X52244Y-109000D02*
D03*
X57756D02*
D03*
X67244D02*
D03*
X72756D02*
D03*
X37244D02*
D03*
X42756D02*
D03*
X22244D02*
D03*
X27756D02*
D03*
X67244Y-140000D02*
D03*
X72756D02*
D03*
X-22756Y-155000D02*
D03*
X-17244D02*
D03*
X52244Y-140000D02*
D03*
X57756D02*
D03*
X37244D02*
D03*
X42756D02*
D03*
X29744Y-62500D02*
D03*
X35256D02*
D03*
X22244Y-140000D02*
D03*
X27756D02*
D03*
D28*
X72500Y-49744D02*
D03*
Y-55256D02*
D03*
X90000Y-107244D02*
D03*
Y-112756D02*
D03*
X110000Y-107244D02*
D03*
Y-112756D02*
D03*
X132500Y-107244D02*
D03*
Y-112756D02*
D03*
X37500Y-25256D02*
D03*
Y-19744D02*
D03*
X152500Y-107244D02*
D03*
Y-112756D02*
D03*
D29*
X16732Y-87500D02*
D03*
X33268D02*
D03*
X-25768Y-30000D02*
D03*
X-9232D02*
D03*
X-25768Y-17500D02*
D03*
X-9232D02*
D03*
D30*
X120000Y-112815D02*
D03*
Y-102185D02*
D03*
X162500Y-112815D02*
D03*
Y-102185D02*
D03*
X10000Y-19685D02*
D03*
Y-30315D02*
D03*
X100000Y-112815D02*
D03*
Y-102185D02*
D03*
X27500Y-19685D02*
D03*
Y-30315D02*
D03*
X62500Y-55315D02*
D03*
Y-44685D02*
D03*
X142500Y-112815D02*
D03*
Y-102185D02*
D03*
D31*
X159075Y-157067D02*
D03*
X156516D02*
D03*
X153957D02*
D03*
X151398D02*
D03*
X148839D02*
D03*
X146280D02*
D03*
X143720D02*
D03*
X141161D02*
D03*
X138602D02*
D03*
X136043D02*
D03*
X133484D02*
D03*
X130925D02*
D03*
X159075Y-127933D02*
D03*
X156516D02*
D03*
X153957D02*
D03*
X151398D02*
D03*
X148839D02*
D03*
X146280D02*
D03*
X143720D02*
D03*
X141161D02*
D03*
X138602D02*
D03*
X136043D02*
D03*
X133484D02*
D03*
X130925D02*
D03*
X119075Y-157067D02*
D03*
X116516D02*
D03*
X113957D02*
D03*
X111398D02*
D03*
X108839D02*
D03*
X106280D02*
D03*
X103720D02*
D03*
X101161D02*
D03*
X98602D02*
D03*
X96043D02*
D03*
X93484D02*
D03*
X90925D02*
D03*
X119075Y-127933D02*
D03*
X116516D02*
D03*
X113957D02*
D03*
X111398D02*
D03*
X108839D02*
D03*
X106280D02*
D03*
X103720D02*
D03*
X101161D02*
D03*
X98602D02*
D03*
X96043D02*
D03*
X93484D02*
D03*
X90925D02*
D03*
D32*
X-3642Y-137500D02*
D03*
X-21358D02*
D03*
X46358Y-50000D02*
D03*
X28642D02*
D03*
D33*
X76910Y-15945D02*
D03*
Y-25000D02*
D03*
Y-34055D02*
D03*
D34*
X53091Y-25000D02*
D03*
M02*
