G04 Layer_Color=8388736*
%FSLAX25Y25*%
%MOIN*%
G70*
G01*
G75*
%ADD36R,0.06706X0.06706*%
%ADD37C,0.06706*%
%ADD38C,0.09855*%
%ADD39C,0.08674*%
%ADD40C,0.23622*%
%ADD41O,0.08674X0.22453*%
%ADD42O,0.08674X0.20485*%
D36*
X90000Y-15000D02*
D03*
X190000Y-170000D02*
D03*
X120000D02*
D03*
X160000D02*
D03*
X-10000D02*
D03*
X0D02*
D03*
Y0D02*
D03*
D37*
X100000Y-15000D02*
D03*
X110000D02*
D03*
X120000D02*
D03*
X130000D02*
D03*
X140000D02*
D03*
X180000Y-170000D02*
D03*
X170000D02*
D03*
X90000D02*
D03*
X100000D02*
D03*
X110000D02*
D03*
X130000D02*
D03*
X140000D02*
D03*
X150000D02*
D03*
X-20000D02*
D03*
X10000D02*
D03*
X20000D02*
D03*
X30000D02*
D03*
X40000D02*
D03*
X50000D02*
D03*
X60000D02*
D03*
X70000D02*
D03*
X190000Y10000D02*
D03*
Y0D02*
D03*
X180000Y10000D02*
D03*
Y0D02*
D03*
X170000Y10000D02*
D03*
Y0D02*
D03*
X160000Y10000D02*
D03*
Y0D02*
D03*
X150000Y10000D02*
D03*
Y0D02*
D03*
X140000Y10000D02*
D03*
Y0D02*
D03*
X130000Y10000D02*
D03*
Y0D02*
D03*
X120000Y10000D02*
D03*
Y0D02*
D03*
X110000Y10000D02*
D03*
Y0D02*
D03*
X100000Y10000D02*
D03*
Y0D02*
D03*
X90000Y10000D02*
D03*
Y0D02*
D03*
X80000Y10000D02*
D03*
Y0D02*
D03*
X70000Y10000D02*
D03*
Y0D02*
D03*
X60000Y10000D02*
D03*
Y0D02*
D03*
X50000Y10000D02*
D03*
Y0D02*
D03*
X40000Y10000D02*
D03*
Y0D02*
D03*
X30000Y10000D02*
D03*
Y0D02*
D03*
X20000Y10000D02*
D03*
Y0D02*
D03*
X10000Y10000D02*
D03*
Y0D02*
D03*
X0Y10000D02*
D03*
X200000Y-170000D02*
D03*
X80000D02*
D03*
D38*
X330000Y-120000D02*
D03*
Y-140000D02*
D03*
Y-160000D02*
D03*
X239913Y-172142D02*
D03*
X287945D02*
D03*
Y-124898D02*
D03*
X239913D02*
D03*
X232039Y-148520D02*
D03*
X330000Y0D02*
D03*
Y-20000D02*
D03*
Y-40000D02*
D03*
X239913Y-34142D02*
D03*
X287945D02*
D03*
Y13102D02*
D03*
X239913D02*
D03*
X232039Y-10520D02*
D03*
X239913Y-103142D02*
D03*
X287945D02*
D03*
Y-55898D02*
D03*
X239913D02*
D03*
X232039Y-79520D02*
D03*
X330000Y-60000D02*
D03*
Y-80000D02*
D03*
Y-100000D02*
D03*
D39*
X157795Y-63642D02*
D03*
Y-81358D02*
D03*
X132205Y-63642D02*
D03*
Y-81358D02*
D03*
X157795Y-36142D02*
D03*
Y-53858D02*
D03*
X132205Y-36142D02*
D03*
Y-53858D02*
D03*
X115295Y-36142D02*
D03*
Y-53858D02*
D03*
X89705Y-36142D02*
D03*
Y-53858D02*
D03*
X115295Y-63642D02*
D03*
Y-81358D02*
D03*
X89705Y-63642D02*
D03*
Y-81358D02*
D03*
D40*
X-19173Y-85551D02*
D03*
Y5000D02*
D03*
X209173D02*
D03*
D41*
X13937Y-55000D02*
D03*
D42*
X-9685D02*
D03*
M02*
