G04 Layer_Color=32896*
%FSLAX25Y25*%
%MOIN*%
G70*
G01*
G75*
%ADD10C,0.01000*%
%ADD35C,0.00787*%
%ADD58C,0.00984*%
%ADD59C,0.02362*%
%ADD60C,0.00800*%
G36*
X317500Y-154786D02*
X316081D01*
Y-147634D01*
X310802D01*
Y-153613D01*
X309346D01*
Y-147634D01*
X304634D01*
Y-154862D01*
X303215D01*
Y-146121D01*
X317500D01*
Y-154786D01*
D02*
G37*
G36*
X276909Y-30078D02*
X276877Y-31024D01*
X276782Y-31939D01*
X276656Y-32759D01*
X276467Y-33516D01*
X276246Y-34210D01*
X275994Y-34841D01*
X275710Y-35408D01*
X275426Y-35944D01*
X275174Y-36386D01*
X274890Y-36764D01*
X274638Y-37080D01*
X274417Y-37332D01*
X274228Y-37553D01*
X274070Y-37679D01*
X273975Y-37774D01*
X273944Y-37805D01*
X273344Y-38247D01*
X272682Y-38625D01*
X272020Y-38972D01*
X271294Y-39256D01*
X270569Y-39508D01*
X269844Y-39729D01*
X269118Y-39918D01*
X268393Y-40076D01*
X267730Y-40202D01*
X267131Y-40297D01*
X266563Y-40360D01*
X266090Y-40423D01*
X265680Y-40455D01*
X265396Y-40486D01*
X265144D01*
X264103Y-40455D01*
X263157Y-40391D01*
X262243Y-40265D01*
X261391Y-40108D01*
X260602Y-39950D01*
X259877Y-39761D01*
X259246Y-39540D01*
X258647Y-39319D01*
X258111Y-39098D01*
X257669Y-38878D01*
X257259Y-38688D01*
X256944Y-38531D01*
X256691Y-38373D01*
X256534Y-38247D01*
X256407Y-38184D01*
X256376Y-38152D01*
X255777Y-37648D01*
X255272Y-37143D01*
X254862Y-36638D01*
X254515Y-36197D01*
X254231Y-35787D01*
X254074Y-35440D01*
X254011Y-35314D01*
X253947Y-35219D01*
X253916Y-35187D01*
Y-35156D01*
X253664Y-34462D01*
X253474Y-33705D01*
X253317Y-32948D01*
X253222Y-32191D01*
X253190Y-31844D01*
X253159Y-31529D01*
Y-31245D01*
X253127Y-30993D01*
Y-30803D01*
Y-30646D01*
Y-30551D01*
Y-30520D01*
Y-25000D01*
X276909D01*
Y-30078D01*
D02*
G37*
G36*
X317500Y-123814D02*
X313338Y-125271D01*
Y-129868D01*
X317500Y-131306D01*
Y-132952D01*
X302988Y-127693D01*
Y-127503D01*
X317500Y-122244D01*
Y-123814D01*
D02*
G37*
G36*
X311332Y-134182D02*
X312051Y-134258D01*
X312373Y-134296D01*
X312694Y-134353D01*
X312978Y-134409D01*
X313243Y-134485D01*
X313489Y-134542D01*
X313697Y-134598D01*
X313886Y-134655D01*
X314038Y-134712D01*
X314151Y-134750D01*
X314246Y-134788D01*
X314302Y-134807D01*
X314321D01*
X314889Y-135071D01*
X315400Y-135393D01*
X315835Y-135696D01*
X316024Y-135866D01*
X316195Y-136017D01*
X316346Y-136150D01*
X316478Y-136282D01*
X316573Y-136415D01*
X316668Y-136509D01*
X316743Y-136604D01*
X316800Y-136661D01*
X316819Y-136699D01*
X316838Y-136717D01*
X316989Y-136963D01*
X317122Y-137209D01*
X317349Y-137701D01*
X317500Y-138193D01*
X317614Y-138666D01*
X317651Y-138874D01*
X317670Y-139064D01*
X317708Y-139234D01*
Y-139385D01*
X317727Y-139499D01*
Y-139593D01*
Y-139650D01*
Y-139669D01*
X317708Y-140066D01*
X317670Y-140464D01*
X317595Y-140842D01*
X317500Y-141220D01*
X317387Y-141580D01*
X317254Y-141939D01*
X317122Y-142261D01*
X316989Y-142564D01*
X316857Y-142848D01*
X316724Y-143094D01*
X316592Y-143321D01*
X316478Y-143491D01*
X316384Y-143642D01*
X316308Y-143756D01*
X316270Y-143831D01*
X316251Y-143850D01*
X310670D01*
Y-139783D01*
X312070D01*
Y-142356D01*
X315457D01*
X315608Y-142166D01*
X315740Y-141958D01*
X315854Y-141750D01*
X315949Y-141542D01*
X316024Y-141372D01*
X316081Y-141239D01*
X316100Y-141145D01*
X316119Y-141107D01*
X316195Y-140823D01*
X316232Y-140558D01*
X316270Y-140312D01*
X316308Y-140104D01*
Y-139934D01*
X316327Y-139783D01*
Y-139707D01*
Y-139669D01*
X316308Y-139328D01*
X316251Y-139007D01*
X316176Y-138723D01*
X316081Y-138439D01*
X315949Y-138174D01*
X315816Y-137947D01*
X315684Y-137720D01*
X315532Y-137531D01*
X315381Y-137361D01*
X315248Y-137209D01*
X315097Y-137077D01*
X314984Y-136963D01*
X314889Y-136888D01*
X314813Y-136831D01*
X314757Y-136793D01*
X314738Y-136774D01*
X314416Y-136585D01*
X314075Y-136434D01*
X313716Y-136301D01*
X313356Y-136169D01*
X312600Y-135980D01*
X311881Y-135866D01*
X311540Y-135828D01*
X311219Y-135790D01*
X310935Y-135772D01*
X310689Y-135753D01*
X310500Y-135734D01*
X310216D01*
X309667Y-135753D01*
X309156Y-135772D01*
X308683Y-135828D01*
X308248Y-135904D01*
X307851Y-135980D01*
X307491Y-136074D01*
X307170Y-136169D01*
X306886Y-136263D01*
X306640Y-136358D01*
X306432Y-136453D01*
X306243Y-136547D01*
X306091Y-136623D01*
X305978Y-136699D01*
X305902Y-136755D01*
X305864Y-136774D01*
X305845Y-136793D01*
X305599Y-137001D01*
X305410Y-137209D01*
X305221Y-137436D01*
X305070Y-137682D01*
X304937Y-137909D01*
X304824Y-138136D01*
X304748Y-138364D01*
X304672Y-138591D01*
X304615Y-138780D01*
X304578Y-138969D01*
X304540Y-139139D01*
X304521Y-139291D01*
X304502Y-139404D01*
Y-139499D01*
Y-139556D01*
Y-139574D01*
X304521Y-139858D01*
X304540Y-140104D01*
X304578Y-140331D01*
X304634Y-140520D01*
X304691Y-140691D01*
X304729Y-140804D01*
X304748Y-140880D01*
X304767Y-140899D01*
X304880Y-141107D01*
X305013Y-141315D01*
X305164Y-141504D01*
X305297Y-141674D01*
X305429Y-141807D01*
X305543Y-141920D01*
X305618Y-141996D01*
X305637Y-142015D01*
X305807Y-142185D01*
X305959Y-142280D01*
X306034Y-142337D01*
X306072Y-142356D01*
X306186Y-142394D01*
X306299Y-142412D01*
X306413D01*
X306545Y-142507D01*
X306375Y-142677D01*
X305486Y-143813D01*
X305107Y-143567D01*
X304767Y-143283D01*
X304464Y-142980D01*
X304218Y-142696D01*
X304010Y-142431D01*
X303859Y-142204D01*
X303821Y-142129D01*
X303783Y-142072D01*
X303745Y-142034D01*
Y-142015D01*
X303518Y-141561D01*
X303367Y-141126D01*
X303253Y-140710D01*
X303159Y-140331D01*
X303121Y-140029D01*
X303102Y-139877D01*
Y-139764D01*
X303083Y-139688D01*
Y-139612D01*
Y-139574D01*
Y-139556D01*
X303102Y-139083D01*
X303178Y-138628D01*
X303291Y-138212D01*
X303405Y-137815D01*
X303537Y-137493D01*
X303594Y-137361D01*
X303632Y-137247D01*
X303688Y-137172D01*
X303707Y-137096D01*
X303745Y-137058D01*
Y-137039D01*
X303878Y-136812D01*
X304029Y-136604D01*
X304369Y-136188D01*
X304767Y-135847D01*
X305145Y-135544D01*
X305486Y-135299D01*
X305656Y-135185D01*
X305788Y-135109D01*
X305902Y-135053D01*
X305978Y-134996D01*
X306034Y-134977D01*
X306053Y-134958D01*
X306375Y-134807D01*
X306716Y-134693D01*
X307453Y-134485D01*
X308210Y-134334D01*
X308570Y-134277D01*
X308929Y-134239D01*
X309270Y-134201D01*
X309573Y-134182D01*
X309837Y-134163D01*
X310083D01*
X310292Y-134144D01*
X310556D01*
X311332Y-134182D01*
D02*
G37*
G36*
X276877Y-45249D02*
X269938Y-47677D01*
Y-55342D01*
X276877Y-57739D01*
Y-60483D01*
X252686Y-51714D01*
Y-51399D01*
X276877Y-42631D01*
Y-45249D01*
D02*
G37*
G36*
Y-115961D02*
X274512D01*
Y-104039D01*
X265712D01*
Y-114006D01*
X263283D01*
Y-104039D01*
X255430D01*
Y-116087D01*
X253064D01*
Y-101516D01*
X276877D01*
Y-115961D01*
D02*
G37*
G36*
Y-123184D02*
X266406D01*
Y-127820D01*
X276877Y-133088D01*
Y-136052D01*
X266280Y-130564D01*
X266027Y-131321D01*
X265680Y-131984D01*
X265270Y-132583D01*
X264892Y-133088D01*
X264513Y-133498D01*
X264166Y-133782D01*
X264072Y-133908D01*
X263977Y-133971D01*
X263914Y-134034D01*
X263882D01*
X263536Y-134286D01*
X263189Y-134475D01*
X262463Y-134822D01*
X261801Y-135075D01*
X261202Y-135232D01*
X260665Y-135327D01*
X260445Y-135359D01*
X260255D01*
X260129Y-135390D01*
X259909D01*
X259309Y-135359D01*
X258773Y-135295D01*
X258268Y-135201D01*
X257764Y-135106D01*
X257322Y-134948D01*
X256912Y-134791D01*
X256534Y-134601D01*
X256218Y-134444D01*
X255903Y-134255D01*
X255651Y-134065D01*
X255430Y-133908D01*
X255241Y-133782D01*
X255114Y-133655D01*
X255020Y-133561D01*
X254957Y-133498D01*
X254925Y-133466D01*
X254610Y-133088D01*
X254326Y-132646D01*
X254105Y-132204D01*
X253884Y-131731D01*
X253695Y-131227D01*
X253569Y-130722D01*
X253348Y-129776D01*
X253285Y-129303D01*
X253222Y-128893D01*
X253190Y-128514D01*
X253159Y-128167D01*
X253127Y-127884D01*
Y-127694D01*
Y-127536D01*
Y-127505D01*
Y-120472D01*
X276877D01*
Y-123184D01*
D02*
G37*
G36*
Y-65560D02*
X258205D01*
X276877Y-76063D01*
Y-78145D01*
X254389D01*
X254231Y-78176D01*
X254105D01*
X253947Y-78208D01*
X253884D01*
X253695Y-78271D01*
X253537Y-78366D01*
X253411Y-78460D01*
X253380Y-78492D01*
X253127D01*
Y-75590D01*
X270758D01*
X253127Y-65592D01*
Y-63006D01*
X276877D01*
Y-65560D01*
D02*
G37*
G36*
X266595Y-81614D02*
X267793Y-81740D01*
X268330Y-81804D01*
X268866Y-81898D01*
X269339Y-81993D01*
X269780Y-82119D01*
X270191Y-82214D01*
X270537Y-82308D01*
X270853Y-82403D01*
X271105Y-82497D01*
X271294Y-82560D01*
X271452Y-82624D01*
X271547Y-82655D01*
X271578D01*
X272524Y-83097D01*
X273376Y-83633D01*
X274101Y-84137D01*
X274417Y-84421D01*
X274701Y-84674D01*
X274953Y-84895D01*
X275174Y-85115D01*
X275332Y-85336D01*
X275489Y-85494D01*
X275615Y-85651D01*
X275710Y-85746D01*
X275742Y-85809D01*
X275773Y-85841D01*
X276025Y-86251D01*
X276246Y-86661D01*
X276625Y-87481D01*
X276877Y-88301D01*
X277066Y-89089D01*
X277129Y-89436D01*
X277161Y-89752D01*
X277224Y-90035D01*
Y-90288D01*
X277256Y-90477D01*
Y-90635D01*
Y-90729D01*
Y-90761D01*
X277224Y-91423D01*
X277161Y-92086D01*
X277035Y-92716D01*
X276877Y-93347D01*
X276688Y-93946D01*
X276467Y-94546D01*
X276246Y-95082D01*
X276025Y-95587D01*
X275805Y-96060D01*
X275584Y-96470D01*
X275363Y-96848D01*
X275174Y-97132D01*
X275016Y-97384D01*
X274890Y-97574D01*
X274827Y-97700D01*
X274795Y-97731D01*
X265491D01*
Y-90950D01*
X267825D01*
Y-95240D01*
X273471D01*
X273723Y-94924D01*
X273944Y-94577D01*
X274133Y-94230D01*
X274291Y-93883D01*
X274417Y-93599D01*
X274512Y-93379D01*
X274543Y-93221D01*
X274575Y-93158D01*
X274701Y-92685D01*
X274764Y-92243D01*
X274827Y-91833D01*
X274890Y-91486D01*
Y-91202D01*
X274921Y-90950D01*
Y-90824D01*
Y-90761D01*
X274890Y-90193D01*
X274795Y-89657D01*
X274669Y-89184D01*
X274512Y-88711D01*
X274291Y-88269D01*
X274070Y-87891D01*
X273849Y-87512D01*
X273597Y-87197D01*
X273344Y-86913D01*
X273124Y-86661D01*
X272871Y-86440D01*
X272682Y-86251D01*
X272524Y-86124D01*
X272398Y-86030D01*
X272304Y-85967D01*
X272272Y-85935D01*
X271736Y-85620D01*
X271168Y-85368D01*
X270569Y-85147D01*
X269970Y-84926D01*
X268708Y-84611D01*
X267510Y-84421D01*
X266942Y-84358D01*
X266406Y-84295D01*
X265933Y-84264D01*
X265523Y-84232D01*
X265207Y-84201D01*
X264734D01*
X263820Y-84232D01*
X262968Y-84264D01*
X262179Y-84358D01*
X261454Y-84484D01*
X260792Y-84611D01*
X260192Y-84768D01*
X259656Y-84926D01*
X259183Y-85084D01*
X258773Y-85241D01*
X258426Y-85399D01*
X258111Y-85557D01*
X257858Y-85683D01*
X257669Y-85809D01*
X257543Y-85904D01*
X257480Y-85935D01*
X257448Y-85967D01*
X257038Y-86314D01*
X256723Y-86661D01*
X256407Y-87039D01*
X256155Y-87449D01*
X255935Y-87828D01*
X255745Y-88206D01*
X255619Y-88585D01*
X255493Y-88963D01*
X255398Y-89279D01*
X255335Y-89594D01*
X255272Y-89878D01*
X255241Y-90130D01*
X255209Y-90319D01*
Y-90477D01*
Y-90572D01*
Y-90603D01*
X255241Y-91076D01*
X255272Y-91486D01*
X255335Y-91865D01*
X255430Y-92180D01*
X255524Y-92464D01*
X255588Y-92653D01*
X255619Y-92779D01*
X255651Y-92811D01*
X255840Y-93158D01*
X256061Y-93505D01*
X256313Y-93820D01*
X256534Y-94104D01*
X256754Y-94325D01*
X256944Y-94514D01*
X257070Y-94640D01*
X257101Y-94672D01*
X257385Y-94956D01*
X257638Y-95113D01*
X257764Y-95208D01*
X257827Y-95240D01*
X258016Y-95303D01*
X258205Y-95334D01*
X258395D01*
X258615Y-95492D01*
X258331Y-95776D01*
X256849Y-97668D01*
X256218Y-97258D01*
X255651Y-96785D01*
X255146Y-96280D01*
X254736Y-95807D01*
X254389Y-95366D01*
X254137Y-94987D01*
X254074Y-94861D01*
X254011Y-94766D01*
X253947Y-94703D01*
Y-94672D01*
X253569Y-93915D01*
X253317Y-93190D01*
X253127Y-92496D01*
X252970Y-91865D01*
X252907Y-91360D01*
X252875Y-91108D01*
Y-90919D01*
X252843Y-90792D01*
Y-90666D01*
Y-90603D01*
Y-90572D01*
X252875Y-89783D01*
X253001Y-89026D01*
X253190Y-88332D01*
X253380Y-87670D01*
X253601Y-87134D01*
X253695Y-86913D01*
X253758Y-86724D01*
X253853Y-86598D01*
X253884Y-86471D01*
X253947Y-86408D01*
Y-86377D01*
X254168Y-85998D01*
X254420Y-85651D01*
X254988Y-84957D01*
X255651Y-84390D01*
X256281Y-83885D01*
X256849Y-83475D01*
X257133Y-83286D01*
X257354Y-83160D01*
X257543Y-83065D01*
X257669Y-82970D01*
X257764Y-82939D01*
X257795Y-82907D01*
X258331Y-82655D01*
X258899Y-82466D01*
X260129Y-82119D01*
X261391Y-81867D01*
X261990Y-81772D01*
X262589Y-81709D01*
X263157Y-81646D01*
X263662Y-81614D01*
X264103Y-81583D01*
X264513D01*
X264860Y-81551D01*
X265302D01*
X266595Y-81614D01*
D02*
G37*
G36*
X317500Y-39525D02*
X316176D01*
Y-36574D01*
X304597D01*
Y-39393D01*
X303253D01*
Y-32317D01*
X304597D01*
Y-34966D01*
X316157D01*
Y-32166D01*
X317500D01*
Y-39525D01*
D02*
G37*
G36*
Y-56005D02*
X310708D01*
Y-61567D01*
X317500D01*
Y-63270D01*
X304010D01*
X303915Y-63289D01*
X303840D01*
X303745Y-63308D01*
X303707D01*
X303594Y-63346D01*
X303499Y-63402D01*
X303424Y-63459D01*
X303405Y-63478D01*
X303253D01*
Y-61605D01*
X309346D01*
Y-56005D01*
X304010D01*
X303915Y-56024D01*
X303840D01*
X303745Y-56043D01*
X303707D01*
X303594Y-56080D01*
X303499Y-56137D01*
X303424Y-56194D01*
X303405Y-56213D01*
X303253D01*
Y-54340D01*
X317500D01*
Y-56005D01*
D02*
G37*
G36*
X317576Y-81509D02*
Y-82247D01*
X303253Y-87034D01*
Y-85444D01*
X314189Y-82001D01*
X303215Y-78330D01*
Y-76665D01*
X317576Y-81509D01*
D02*
G37*
G36*
X311332Y-42609D02*
X312051Y-42685D01*
X312373Y-42723D01*
X312694Y-42780D01*
X312978Y-42836D01*
X313243Y-42912D01*
X313489Y-42969D01*
X313697Y-43026D01*
X313886Y-43082D01*
X314038Y-43139D01*
X314151Y-43177D01*
X314246Y-43215D01*
X314302Y-43234D01*
X314321D01*
X314889Y-43499D01*
X315400Y-43820D01*
X315835Y-44123D01*
X316024Y-44293D01*
X316195Y-44445D01*
X316346Y-44577D01*
X316478Y-44710D01*
X316573Y-44842D01*
X316668Y-44937D01*
X316743Y-45031D01*
X316800Y-45088D01*
X316819Y-45126D01*
X316838Y-45145D01*
X316989Y-45391D01*
X317122Y-45637D01*
X317349Y-46128D01*
X317500Y-46620D01*
X317614Y-47093D01*
X317651Y-47302D01*
X317670Y-47491D01*
X317708Y-47661D01*
Y-47812D01*
X317727Y-47926D01*
Y-48020D01*
Y-48077D01*
Y-48096D01*
X317708Y-48493D01*
X317670Y-48891D01*
X317595Y-49269D01*
X317500Y-49648D01*
X317387Y-50007D01*
X317254Y-50367D01*
X317122Y-50688D01*
X316989Y-50991D01*
X316857Y-51275D01*
X316724Y-51521D01*
X316592Y-51748D01*
X316478Y-51918D01*
X316384Y-52069D01*
X316308Y-52183D01*
X316270Y-52259D01*
X316251Y-52277D01*
X310670D01*
Y-48210D01*
X312070D01*
Y-50783D01*
X315457D01*
X315608Y-50594D01*
X315740Y-50385D01*
X315854Y-50177D01*
X315949Y-49969D01*
X316024Y-49799D01*
X316081Y-49667D01*
X316100Y-49572D01*
X316119Y-49534D01*
X316195Y-49250D01*
X316232Y-48985D01*
X316270Y-48739D01*
X316308Y-48531D01*
Y-48361D01*
X316327Y-48210D01*
Y-48134D01*
Y-48096D01*
X316308Y-47756D01*
X316251Y-47434D01*
X316176Y-47150D01*
X316081Y-46866D01*
X315949Y-46602D01*
X315816Y-46374D01*
X315684Y-46147D01*
X315532Y-45958D01*
X315381Y-45788D01*
X315248Y-45637D01*
X315097Y-45504D01*
X314984Y-45391D01*
X314889Y-45315D01*
X314813Y-45258D01*
X314757Y-45220D01*
X314738Y-45201D01*
X314416Y-45012D01*
X314075Y-44861D01*
X313716Y-44728D01*
X313356Y-44596D01*
X312600Y-44407D01*
X311881Y-44293D01*
X311540Y-44255D01*
X311219Y-44218D01*
X310935Y-44199D01*
X310689Y-44180D01*
X310500Y-44161D01*
X310216D01*
X309667Y-44180D01*
X309156Y-44199D01*
X308683Y-44255D01*
X308248Y-44331D01*
X307851Y-44407D01*
X307491Y-44501D01*
X307170Y-44596D01*
X306886Y-44691D01*
X306640Y-44785D01*
X306432Y-44880D01*
X306243Y-44974D01*
X306091Y-45050D01*
X305978Y-45126D01*
X305902Y-45182D01*
X305864Y-45201D01*
X305845Y-45220D01*
X305599Y-45428D01*
X305410Y-45637D01*
X305221Y-45864D01*
X305070Y-46110D01*
X304937Y-46337D01*
X304824Y-46564D01*
X304748Y-46791D01*
X304672Y-47018D01*
X304615Y-47207D01*
X304578Y-47396D01*
X304540Y-47566D01*
X304521Y-47718D01*
X304502Y-47831D01*
Y-47926D01*
Y-47983D01*
Y-48002D01*
X304521Y-48285D01*
X304540Y-48531D01*
X304578Y-48758D01*
X304634Y-48948D01*
X304691Y-49118D01*
X304729Y-49231D01*
X304748Y-49307D01*
X304767Y-49326D01*
X304880Y-49534D01*
X305013Y-49742D01*
X305164Y-49931D01*
X305297Y-50102D01*
X305429Y-50234D01*
X305543Y-50348D01*
X305618Y-50423D01*
X305637Y-50442D01*
X305807Y-50613D01*
X305959Y-50707D01*
X306034Y-50764D01*
X306072Y-50783D01*
X306186Y-50821D01*
X306299Y-50840D01*
X306413D01*
X306545Y-50934D01*
X306375Y-51104D01*
X305486Y-52240D01*
X305107Y-51994D01*
X304767Y-51710D01*
X304464Y-51407D01*
X304218Y-51123D01*
X304010Y-50858D01*
X303859Y-50631D01*
X303821Y-50556D01*
X303783Y-50499D01*
X303745Y-50461D01*
Y-50442D01*
X303518Y-49988D01*
X303367Y-49553D01*
X303253Y-49137D01*
X303159Y-48758D01*
X303121Y-48456D01*
X303102Y-48304D01*
Y-48191D01*
X303083Y-48115D01*
Y-48039D01*
Y-48002D01*
Y-47983D01*
X303102Y-47510D01*
X303178Y-47056D01*
X303291Y-46639D01*
X303405Y-46242D01*
X303537Y-45920D01*
X303594Y-45788D01*
X303632Y-45674D01*
X303688Y-45599D01*
X303707Y-45523D01*
X303745Y-45485D01*
Y-45466D01*
X303878Y-45239D01*
X304029Y-45031D01*
X304369Y-44615D01*
X304767Y-44274D01*
X305145Y-43972D01*
X305486Y-43726D01*
X305656Y-43612D01*
X305788Y-43536D01*
X305902Y-43480D01*
X305978Y-43423D01*
X306034Y-43404D01*
X306053Y-43385D01*
X306375Y-43234D01*
X306716Y-43120D01*
X307453Y-42912D01*
X308210Y-42761D01*
X308570Y-42704D01*
X308929Y-42666D01*
X309270Y-42628D01*
X309573Y-42609D01*
X309837Y-42590D01*
X310083D01*
X310292Y-42572D01*
X310556D01*
X311332Y-42609D01*
D02*
G37*
G36*
X304672Y-115187D02*
X317500D01*
Y-116814D01*
X304672D01*
Y-121033D01*
X303215D01*
Y-111138D01*
X304672D01*
Y-115187D01*
D02*
G37*
G36*
X317500Y-21665D02*
X310708D01*
Y-27227D01*
X317500D01*
Y-28930D01*
X304010D01*
X303915Y-28949D01*
X303840D01*
X303745Y-28968D01*
X303707D01*
X303594Y-29006D01*
X303499Y-29063D01*
X303424Y-29119D01*
X303405Y-29138D01*
X303253D01*
Y-27265D01*
X309346D01*
Y-21665D01*
X304010D01*
X303915Y-21684D01*
X303840D01*
X303745Y-21703D01*
X303707D01*
X303594Y-21741D01*
X303499Y-21797D01*
X303424Y-21854D01*
X303405Y-21873D01*
X303253D01*
Y-20000D01*
X317500D01*
Y-21665D01*
D02*
G37*
G36*
X311105Y-88169D02*
X311692Y-88207D01*
X312259Y-88263D01*
X312789Y-88358D01*
X313262Y-88453D01*
X313697Y-88566D01*
X314113Y-88699D01*
X314473Y-88812D01*
X314794Y-88945D01*
X315078Y-89058D01*
X315305Y-89171D01*
X315494Y-89266D01*
X315665Y-89361D01*
X315759Y-89417D01*
X315835Y-89455D01*
X315854Y-89474D01*
X316195Y-89739D01*
X316478Y-90023D01*
X316724Y-90326D01*
X316951Y-90628D01*
X317122Y-90950D01*
X317292Y-91272D01*
X317405Y-91574D01*
X317500Y-91877D01*
X317595Y-92161D01*
X317651Y-92407D01*
X317689Y-92653D01*
X317708Y-92861D01*
X317727Y-93031D01*
X317746Y-93145D01*
Y-93239D01*
Y-93258D01*
X317727Y-93712D01*
X317670Y-94129D01*
X317576Y-94507D01*
X317443Y-94885D01*
X317311Y-95207D01*
X317141Y-95529D01*
X316970Y-95812D01*
X316800Y-96058D01*
X316630Y-96285D01*
X316459Y-96475D01*
X316289Y-96645D01*
X316157Y-96777D01*
X316024Y-96891D01*
X315930Y-96967D01*
X315873Y-97004D01*
X315854Y-97023D01*
X315476Y-97269D01*
X315078Y-97458D01*
X314662Y-97648D01*
X314208Y-97799D01*
X313773Y-97931D01*
X313319Y-98045D01*
X312883Y-98121D01*
X312448Y-98196D01*
X312051Y-98253D01*
X311673Y-98291D01*
X311332Y-98329D01*
X311029Y-98348D01*
X310802Y-98367D01*
X310462D01*
X309837Y-98348D01*
X309251Y-98310D01*
X308702Y-98234D01*
X308191Y-98159D01*
X307718Y-98064D01*
X307264Y-97950D01*
X306867Y-97818D01*
X306507Y-97704D01*
X306186Y-97572D01*
X305902Y-97440D01*
X305656Y-97326D01*
X305467Y-97231D01*
X305315Y-97156D01*
X305202Y-97080D01*
X305126Y-97042D01*
X305107Y-97023D01*
X304767Y-96758D01*
X304464Y-96475D01*
X304199Y-96172D01*
X303972Y-95869D01*
X303783Y-95548D01*
X303632Y-95245D01*
X303499Y-94942D01*
X303405Y-94639D01*
X303329Y-94356D01*
X303253Y-94091D01*
X303215Y-93864D01*
X303197Y-93656D01*
X303178Y-93485D01*
X303159Y-93372D01*
Y-93277D01*
Y-93258D01*
X303178Y-92823D01*
X303234Y-92407D01*
X303329Y-92010D01*
X303461Y-91650D01*
X303613Y-91309D01*
X303783Y-91007D01*
X303953Y-90723D01*
X304124Y-90477D01*
X304313Y-90250D01*
X304483Y-90042D01*
X304653Y-89872D01*
X304805Y-89739D01*
X304918Y-89626D01*
X305032Y-89550D01*
X305088Y-89512D01*
X305107Y-89493D01*
X305486Y-89266D01*
X305902Y-89058D01*
X306318Y-88869D01*
X306772Y-88717D01*
X307207Y-88585D01*
X307662Y-88472D01*
X308097Y-88396D01*
X308513Y-88320D01*
X308910Y-88263D01*
X309289Y-88226D01*
X309610Y-88188D01*
X309894Y-88169D01*
X310140Y-88150D01*
X310462D01*
X311105Y-88169D01*
D02*
G37*
G36*
X317500Y-109037D02*
X316138D01*
Y-102170D01*
X303915D01*
X303840Y-102189D01*
X303707D01*
X303594Y-102226D01*
X303499Y-102302D01*
X303424Y-102359D01*
X303405Y-102378D01*
X303253D01*
Y-100486D01*
X317500D01*
Y-109037D01*
D02*
G37*
%LPC*%
G36*
X264040Y-123184D02*
X255651D01*
Y-127820D01*
X255714Y-128672D01*
X255840Y-129397D01*
X256029Y-130028D01*
X256250Y-130533D01*
X256471Y-130943D01*
X256660Y-131227D01*
X256786Y-131384D01*
X256849Y-131448D01*
X257322Y-131858D01*
X257827Y-132141D01*
X258331Y-132362D01*
X258805Y-132488D01*
X259246Y-132583D01*
X259593Y-132615D01*
X259719Y-132646D01*
X259909D01*
X260602Y-132583D01*
X261202Y-132457D01*
X261738Y-132267D01*
X262179Y-132047D01*
X262526Y-131826D01*
X262779Y-131637D01*
X262905Y-131511D01*
X262968Y-131448D01*
X263315Y-130943D01*
X263599Y-130375D01*
X263788Y-129776D01*
X263914Y-129208D01*
X263977Y-128672D01*
X264009Y-128420D01*
Y-128230D01*
X264040Y-128041D01*
Y-127915D01*
Y-127852D01*
Y-127820D01*
Y-123184D01*
D02*
G37*
G36*
X274827Y-27523D02*
X255367D01*
Y-30362D01*
X255398Y-31056D01*
X255461Y-31718D01*
X255588Y-32349D01*
X255777Y-32885D01*
X255966Y-33390D01*
X256187Y-33863D01*
X256407Y-34273D01*
X256628Y-34651D01*
X256881Y-34967D01*
X257101Y-35250D01*
X257322Y-35471D01*
X257511Y-35692D01*
X257669Y-35818D01*
X257795Y-35913D01*
X257890Y-35976D01*
X257922Y-36007D01*
X258426Y-36323D01*
X258962Y-36607D01*
X259530Y-36827D01*
X260129Y-37048D01*
X261359Y-37364D01*
X262558Y-37584D01*
X263126Y-37648D01*
X263630Y-37711D01*
X264103Y-37742D01*
X264513Y-37774D01*
X264829Y-37805D01*
X265302D01*
X266153Y-37774D01*
X266973Y-37711D01*
X267730Y-37616D01*
X268456Y-37458D01*
X269118Y-37301D01*
X269717Y-37080D01*
X270285Y-36827D01*
X270821Y-36575D01*
X271294Y-36291D01*
X271736Y-35976D01*
X272146Y-35660D01*
X272493Y-35314D01*
X272840Y-34967D01*
X273124Y-34620D01*
X273628Y-33894D01*
X274038Y-33137D01*
X274322Y-32443D01*
X274543Y-31781D01*
X274669Y-31182D01*
X274764Y-30677D01*
X274795Y-30456D01*
Y-30299D01*
X274827Y-30141D01*
Y-30046D01*
Y-29983D01*
Y-29952D01*
Y-27523D01*
D02*
G37*
G36*
X312108Y-125706D02*
X306659Y-127579D01*
X312108Y-129452D01*
Y-125706D01*
D02*
G37*
G36*
X267888Y-48403D02*
X258805Y-51525D01*
X267888Y-54648D01*
Y-48403D01*
D02*
G37*
G36*
X310727Y-89796D02*
X310462D01*
X309970Y-89815D01*
X309497Y-89834D01*
X309043Y-89872D01*
X308645Y-89947D01*
X308248Y-90004D01*
X307908Y-90080D01*
X307567Y-90174D01*
X307283Y-90250D01*
X307018Y-90345D01*
X306791Y-90420D01*
X306602Y-90496D01*
X306432Y-90572D01*
X306318Y-90628D01*
X306224Y-90666D01*
X306167Y-90685D01*
X306148Y-90704D01*
X305864Y-90893D01*
X305618Y-91082D01*
X305410Y-91291D01*
X305221Y-91499D01*
X305070Y-91707D01*
X304937Y-91915D01*
X304842Y-92123D01*
X304748Y-92331D01*
X304634Y-92691D01*
X304615Y-92861D01*
X304578Y-92993D01*
Y-93107D01*
X304559Y-93183D01*
Y-93239D01*
Y-93258D01*
X304578Y-93561D01*
X304634Y-93826D01*
X304710Y-94091D01*
X304805Y-94337D01*
X305070Y-94772D01*
X305202Y-94961D01*
X305353Y-95131D01*
X305505Y-95283D01*
X305637Y-95415D01*
X305770Y-95529D01*
X305902Y-95623D01*
X305997Y-95699D01*
X306072Y-95756D01*
X306129Y-95775D01*
X306148Y-95793D01*
X306451Y-95964D01*
X306791Y-96096D01*
X307132Y-96229D01*
X307491Y-96323D01*
X308210Y-96494D01*
X308891Y-96607D01*
X309213Y-96645D01*
X309516Y-96664D01*
X309781Y-96702D01*
X310008D01*
X310197Y-96721D01*
X310462D01*
X310973Y-96702D01*
X311465Y-96683D01*
X311919Y-96645D01*
X312335Y-96588D01*
X312732Y-96513D01*
X313092Y-96437D01*
X313413Y-96361D01*
X313716Y-96267D01*
X313962Y-96191D01*
X314189Y-96096D01*
X314397Y-96021D01*
X314548Y-95964D01*
X314681Y-95888D01*
X314757Y-95850D01*
X314813Y-95831D01*
X314832Y-95812D01*
X315097Y-95642D01*
X315343Y-95434D01*
X315551Y-95245D01*
X315722Y-95037D01*
X315873Y-94810D01*
X315986Y-94602D01*
X316100Y-94393D01*
X316176Y-94204D01*
X316289Y-93826D01*
X316308Y-93674D01*
X316346Y-93523D01*
Y-93410D01*
X316365Y-93334D01*
Y-93277D01*
Y-93258D01*
X316346Y-92955D01*
X316289Y-92672D01*
X316213Y-92407D01*
X316119Y-92161D01*
X315873Y-91726D01*
X315740Y-91536D01*
X315589Y-91366D01*
X315457Y-91215D01*
X315324Y-91082D01*
X315192Y-90969D01*
X315078Y-90874D01*
X314965Y-90799D01*
X314889Y-90742D01*
X314851Y-90723D01*
X314832Y-90704D01*
X314530Y-90553D01*
X314208Y-90401D01*
X313508Y-90174D01*
X312770Y-90023D01*
X312070Y-89909D01*
X311748Y-89872D01*
X311446Y-89853D01*
X311162Y-89815D01*
X310935D01*
X310727Y-89796D01*
D02*
G37*
%LPD*%
D10*
X191791Y-138150D02*
X194646D01*
X191791D02*
Y-133425D01*
X200354Y-138150D02*
X203209D01*
Y-133425D01*
X195650Y-63209D02*
Y-60354D01*
X190925Y-63209D02*
X195650D01*
Y-54646D02*
Y-51791D01*
X190925D02*
X195650D01*
X203150Y-43209D02*
Y-40354D01*
X198425Y-43209D02*
X203150D01*
Y-34646D02*
Y-31791D01*
X198425D02*
X203150D01*
X61500Y-103000D02*
X74500D01*
X75500Y-104000D01*
Y-106000D02*
Y-104000D01*
X19500Y-106000D02*
Y-104000D01*
X20500Y-103000D01*
X35500D01*
X19500Y-128000D02*
X29500D01*
X18500Y-127000D02*
X19500Y-128000D01*
X18500Y-127000D02*
Y-125000D01*
X74500Y-127000D02*
Y-125000D01*
X73500Y-128000D02*
X74500Y-127000D01*
X63500Y-128000D02*
X73500D01*
X20500Y-134000D02*
X35500D01*
X19500Y-135000D02*
X20500Y-134000D01*
X19500Y-137000D02*
Y-135000D01*
X75500Y-137000D02*
Y-135000D01*
X74500Y-134000D02*
X75500Y-135000D01*
X61500Y-134000D02*
X74500D01*
X63500Y-159000D02*
X73500D01*
X74500Y-158000D01*
Y-156000D01*
X18500Y-158000D02*
Y-156000D01*
Y-158000D02*
X19500Y-159000D01*
X29500D01*
X16654Y-92756D02*
X33347D01*
X16654Y-82244D02*
X33347D01*
X-25846Y-35256D02*
X-9154D01*
X-25846Y-24744D02*
X-9154D01*
X-25709Y-123150D02*
X-22854D01*
X-25709D02*
Y-118425D01*
X-17146Y-123150D02*
X-14291D01*
Y-118425D01*
X-25846Y-22756D02*
X-9154D01*
X-25846Y-12244D02*
X-9154D01*
D35*
X184213Y-158878D02*
X185787D01*
X184213Y-156122D02*
X185787D01*
X218602Y-156870D02*
Y-147224D01*
X206398Y-156870D02*
Y-147224D01*
Y-137776D02*
Y-127539D01*
X218602Y-137776D02*
Y-127539D01*
X208169Y-158642D02*
X216831D01*
X206398Y-156870D02*
X208169Y-158642D01*
X216831D02*
X218602Y-156870D01*
X206398Y-127539D02*
X218602D01*
X186378Y-120787D02*
Y-119213D01*
X183622Y-120787D02*
Y-119213D01*
X191122Y-120787D02*
Y-119213D01*
X193878Y-120787D02*
Y-119213D01*
X210925Y-162047D02*
X214075D01*
X210925Y-167953D02*
X214075D01*
X208425Y-107047D02*
X211575D01*
X208425Y-112953D02*
X211575D01*
X171122Y-58287D02*
Y-56713D01*
X173878Y-58287D02*
Y-56713D01*
X178622Y-58287D02*
Y-56713D01*
X181378Y-58287D02*
Y-56713D01*
X209102Y-96370D02*
Y-86724D01*
X196898Y-96370D02*
Y-86724D01*
Y-77276D02*
Y-67039D01*
X209102Y-77276D02*
Y-67039D01*
X198669Y-98142D02*
X207331D01*
X196898Y-96370D02*
X198669Y-98142D01*
X207331D02*
X209102Y-96370D01*
X196898Y-67039D02*
X209102D01*
X208425Y-49547D02*
X211575D01*
X208425Y-55453D02*
X211575D01*
X176713Y-38622D02*
X178287D01*
X176713Y-41378D02*
X178287D01*
X186122Y-38287D02*
Y-36713D01*
X188878Y-38287D02*
Y-36713D01*
X26122Y-119787D02*
Y-118213D01*
X28878Y-119787D02*
Y-118213D01*
X41122Y-119787D02*
Y-118213D01*
X43878Y-119787D02*
Y-118213D01*
X18622Y-119787D02*
Y-118213D01*
X21378Y-119787D02*
Y-118213D01*
X33622Y-119787D02*
Y-118213D01*
X36378Y-119787D02*
Y-118213D01*
X56122Y-119787D02*
Y-118213D01*
X58878Y-119787D02*
Y-118213D01*
X48622Y-119787D02*
Y-118213D01*
X51378Y-119787D02*
Y-118213D01*
X71122Y-119787D02*
Y-118213D01*
X73878Y-119787D02*
Y-118213D01*
X63622Y-119787D02*
Y-118213D01*
X66378Y-119787D02*
Y-118213D01*
X56122Y-150787D02*
Y-149213D01*
X58878Y-150787D02*
Y-149213D01*
X63622Y-150787D02*
Y-149213D01*
X66378Y-150787D02*
Y-149213D01*
X48622Y-150787D02*
Y-149213D01*
X51378Y-150787D02*
Y-149213D01*
X122953Y-109075D02*
Y-105925D01*
X117047Y-109075D02*
Y-105925D01*
X26122Y-150787D02*
Y-149213D01*
X28878Y-150787D02*
Y-149213D01*
X-20787Y-101378D02*
X-19213D01*
X-20787Y-98622D02*
X-19213D01*
X165453Y-109075D02*
Y-105925D01*
X159547Y-109075D02*
Y-105925D01*
X7047Y-26575D02*
Y-23425D01*
X12953Y-26575D02*
Y-23425D01*
X71122Y-150787D02*
Y-149213D01*
X73878Y-150787D02*
Y-149213D01*
X102953Y-109075D02*
Y-105925D01*
X97047Y-109075D02*
Y-105925D01*
X129252Y-152342D02*
X160748D01*
X129252Y-132658D02*
X160748D01*
Y-152342D02*
Y-132658D01*
X129252Y-152342D02*
Y-132658D01*
X24547Y-26575D02*
Y-23425D01*
X30453Y-26575D02*
Y-23425D01*
X-20787Y-106122D02*
X-19213D01*
X-20787Y-108878D02*
X-19213D01*
X18622Y-150787D02*
Y-149213D01*
X21378Y-150787D02*
Y-149213D01*
X221102Y-44370D02*
Y-34724D01*
X208898Y-44370D02*
Y-34724D01*
Y-25276D02*
Y-15039D01*
X221102Y-25276D02*
Y-15039D01*
X210669Y-46142D02*
X219331D01*
X208898Y-44370D02*
X210669Y-46142D01*
X219331D02*
X221102Y-44370D01*
X208898Y-15039D02*
X221102D01*
X-7776Y-131398D02*
X1870D01*
X-7776Y-143602D02*
X1870D01*
X-27461D02*
X-17224D01*
X-27461Y-131398D02*
X-17224D01*
X3642Y-141831D02*
Y-133169D01*
X1870Y-143602D02*
X3642Y-141831D01*
X1870Y-131398D02*
X3642Y-133169D01*
X-27461Y-143602D02*
Y-131398D01*
X42224Y-43898D02*
X51870D01*
X42224Y-56102D02*
X51870D01*
X22539D02*
X32776D01*
X22539Y-43898D02*
X32776D01*
X53642Y-54331D02*
Y-45669D01*
X51870Y-56102D02*
X53642Y-54331D01*
X51870Y-43898D02*
X53642Y-45669D01*
X22539Y-56102D02*
Y-43898D01*
X41122Y-150787D02*
Y-149213D01*
X43878Y-150787D02*
Y-149213D01*
X65453Y-51575D02*
Y-48425D01*
X59547Y-51575D02*
Y-48425D01*
X71102Y-38189D02*
Y-11811D01*
X58898Y-38189D02*
Y-11811D01*
X71102D01*
X58898Y-38189D02*
X71102D01*
X89252Y-152342D02*
X120748D01*
X89252Y-132658D02*
X120748D01*
Y-152342D02*
Y-132658D01*
X89252Y-152342D02*
Y-132658D01*
X28425Y-69547D02*
X31575D01*
X28425Y-75453D02*
X31575D01*
X-4075Y-152047D02*
X-925D01*
X-4075Y-157953D02*
X-925D01*
X33622Y-150787D02*
Y-149213D01*
X36378Y-150787D02*
Y-149213D01*
X145453Y-109075D02*
Y-105925D01*
X139547Y-109075D02*
Y-105925D01*
D58*
X162618Y-157067D02*
X161880Y-156641D01*
Y-157493D01*
X162618Y-157067D01*
X122618D02*
X121880Y-156641D01*
Y-157493D01*
X122618Y-157067D01*
D59*
X157992Y-148406D02*
X157547Y-147482D01*
X156548Y-147254D01*
X155747Y-147893D01*
Y-148918D01*
X156548Y-149557D01*
X157547Y-149329D01*
X157992Y-148406D01*
X117992D02*
X117547Y-147482D01*
X116548Y-147254D01*
X115747Y-147893D01*
Y-148918D01*
X116548Y-149557D01*
X117547Y-149329D01*
X117992Y-148406D01*
D60*
X344776Y19000D02*
X361000Y2776D01*
X358918Y19000D02*
X361000Y16918D01*
X320000Y-35826D02*
X361000Y5174D01*
X330634Y19000D02*
X361000Y-11366D01*
X302350Y19000D02*
X361000Y-39650D01*
X316492Y19000D02*
X361000Y-25508D01*
X288208Y19000D02*
X361000Y-53792D01*
X320000Y-41076D02*
X361000Y-82077D01*
X320000Y-78253D02*
X361000Y-37253D01*
X320000Y-55219D02*
X361000Y-96219D01*
X320000Y-92395D02*
X361000Y-51395D01*
X320000Y-64110D02*
X361000Y-23110D01*
X320000Y-49968D02*
X361000Y-8968D01*
X320000Y-26934D02*
X361000Y-67934D01*
X310042Y-17500D02*
X346542Y19000D01*
X300000Y-17500D02*
X320000D01*
Y-21684D02*
X360684Y19000D01*
X280000Y-33400D02*
X332400Y19000D01*
X280000Y-29361D02*
X300000Y-49361D01*
X280000Y-47542D02*
X300000Y-27542D01*
X280000Y-61684D02*
X300000Y-41684D01*
X280000Y-75826D02*
X300000Y-55826D01*
X280000Y-43503D02*
X300000Y-63503D01*
X320000Y-92395D02*
X361000Y-51395D01*
X280000Y-89968D02*
X300000Y-69968D01*
X280000Y-57645D02*
X300000Y-77645D01*
X280000Y-71787D02*
X300000Y-91787D01*
X320000Y-134821D02*
X361000Y-93821D01*
X320000Y-83503D02*
X361000Y-124503D01*
X320000Y-148963D02*
X361000Y-107963D01*
X320000Y-97645D02*
X361000Y-138645D01*
X320000Y-69361D02*
X361000Y-110361D01*
X320000Y-106537D02*
X361000Y-65537D01*
X320000Y-120679D02*
X361000Y-79679D01*
X331390Y-180000D02*
X361000Y-150390D01*
X320000Y-111787D02*
X361000Y-152787D01*
X345532Y-180000D02*
X361000Y-164532D01*
X317248Y-180000D02*
X361000Y-136248D01*
X320000Y-125929D02*
X361000Y-166929D01*
X303105Y-180000D02*
X361000Y-122105D01*
X300000Y-157500D02*
Y-17500D01*
X280000Y-104110D02*
X300000Y-84110D01*
X361000Y-179000D02*
Y19000D01*
X320000Y-157500D02*
Y-17500D01*
X280000Y-118253D02*
X300000Y-98252D01*
X280000Y-85929D02*
X300000Y-105929D01*
X280000Y-132395D02*
X300000Y-112395D01*
X320000Y-140071D02*
X359928Y-180000D01*
X309144Y-157500D02*
X331644Y-180000D01*
X320000Y-154214D02*
X345786Y-180000D01*
X300000Y-157500D02*
X320000D01*
X280000Y-114214D02*
X300000Y-134214D01*
X288963Y-180000D02*
X311463Y-157500D01*
X279258Y-20000D02*
X318258Y19000D01*
X274066D02*
X310566Y-17500D01*
X265115Y-20000D02*
X304115Y19000D01*
X259924D02*
X300000Y-21077D01*
X226000Y19000D02*
X361000D01*
X250973Y-20000D02*
X289973Y19000D01*
X245781D02*
X300000Y-35219D01*
X225000Y-17689D02*
X261689Y19000D01*
X225000Y-3547D02*
X247547Y19000D01*
X247500Y-20000D02*
X280000D01*
X231639Y19000D02*
X270639Y-20000D01*
X225000Y-31831D02*
X275831Y19000D01*
X225000Y11497D02*
X256497Y-20000D01*
X225000Y-73356D02*
X247500Y-95856D01*
X225000Y-30929D02*
X247500Y-53429D01*
X225000Y-45973D02*
X247500Y-23473D01*
X225000Y-45072D02*
X247500Y-67572D01*
X225000Y-60115D02*
X247500Y-37615D01*
X225000Y-2645D02*
X247500Y-25145D01*
X225000Y10595D02*
X233405Y19000D01*
X225000Y-16787D02*
X247500Y-39287D01*
X225000Y-87498D02*
X247500Y-109998D01*
X225000Y-102542D02*
X247500Y-80042D01*
X225000Y-116684D02*
X247500Y-94184D01*
X225000Y-59214D02*
X247500Y-81714D01*
X225000Y-74258D02*
X247500Y-51758D01*
X225000Y-88400D02*
X247500Y-65900D01*
X280000Y-132395D02*
X300000Y-112395D01*
X280000Y-100072D02*
X300000Y-120071D01*
X280000Y-128356D02*
X300000Y-148356D01*
X280000Y-140000D02*
Y-20000D01*
X246537Y-180000D02*
X300000Y-126537D01*
X225000Y-129924D02*
X275076Y-180000D01*
X263360Y-140000D02*
X303360Y-180000D01*
X274821D02*
X300000Y-154821D01*
X260679Y-180000D02*
X300000Y-140679D01*
X277502Y-140000D02*
X317502Y-180000D01*
X249218Y-140000D02*
X289218Y-180000D01*
X247500Y-140000D02*
X280000D01*
X225000Y-180000D02*
X360000D01*
X225000Y-130826D02*
X247500Y-108326D01*
X225000Y-101640D02*
X247500Y-124140D01*
Y-140000D02*
Y-20000D01*
X225000Y-180000D02*
Y20000D01*
Y-144968D02*
X247500Y-122468D01*
X225000Y-115782D02*
X247500Y-138282D01*
X225000Y-159110D02*
X247500Y-136610D01*
X232395Y-180000D02*
X272395Y-140000D01*
X225000Y-173252D02*
X258253Y-140000D01*
X232395Y-180000D02*
X272395Y-140000D01*
X225000Y-144066D02*
X260934Y-180000D01*
X225000Y-158209D02*
X246791Y-180000D01*
X225000Y-172351D02*
X232649Y-180000D01*
X189000Y-153500D02*
Y-149501D01*
X187001D01*
X186334Y-150168D01*
Y-151501D01*
X187001Y-152167D01*
X189000D01*
X187667D02*
X186334Y-153500D01*
X185001D02*
X183668D01*
X184335D01*
Y-149501D01*
X185001Y-150168D01*
X181669Y-149501D02*
X179003D01*
Y-150168D01*
X181669Y-152833D01*
Y-153500D01*
X125999Y-151000D02*
X122667D01*
X122000Y-150333D01*
Y-149001D01*
X122667Y-148334D01*
X125999D01*
X125332Y-147001D02*
X125999Y-146335D01*
Y-145002D01*
X125332Y-144335D01*
X124666D01*
X123999Y-145002D01*
Y-145668D01*
Y-145002D01*
X123333Y-144335D01*
X122667D01*
X122000Y-145002D01*
Y-146335D01*
X122667Y-147001D01*
X165999Y-151000D02*
X162666D01*
X162000Y-150333D01*
Y-149001D01*
X162666Y-148334D01*
X165999D01*
X162000Y-144335D02*
Y-147001D01*
X164666Y-144335D01*
X165332D01*
X165999Y-145002D01*
Y-146335D01*
X165332Y-147001D01*
X54000Y-11001D02*
Y-14333D01*
X53334Y-15000D01*
X52001D01*
X51334Y-14333D01*
Y-11001D01*
X50001Y-15000D02*
X48668D01*
X49335D01*
Y-11001D01*
X50001Y-11668D01*
X190000Y-114000D02*
X193999D01*
Y-112001D01*
X193332Y-111334D01*
X191999D01*
X191333Y-112001D01*
Y-114000D01*
Y-112667D02*
X190000Y-111334D01*
Y-107335D02*
Y-110001D01*
X192666Y-107335D01*
X193332D01*
X193999Y-108002D01*
Y-109335D01*
X193332Y-110001D01*
X193999Y-103337D02*
Y-106003D01*
X191999D01*
X192666Y-104670D01*
Y-104003D01*
X191999Y-103337D01*
X190666D01*
X190000Y-104003D01*
Y-105336D01*
X190666Y-106003D01*
X183000Y-114000D02*
X186999D01*
Y-112001D01*
X186332Y-111334D01*
X184999D01*
X184333Y-112001D01*
Y-114000D01*
Y-112667D02*
X183000Y-111334D01*
Y-107335D02*
Y-110001D01*
X185666Y-107335D01*
X186332D01*
X186999Y-108002D01*
Y-109335D01*
X186332Y-110001D01*
X183000Y-104003D02*
X186999D01*
X184999Y-106003D01*
Y-103337D01*
X177500Y-75000D02*
X181499D01*
Y-73001D01*
X180832Y-72334D01*
X179499D01*
X178833Y-73001D01*
Y-75000D01*
Y-73667D02*
X177500Y-72334D01*
Y-68335D02*
Y-71001D01*
X180166Y-68335D01*
X180832D01*
X181499Y-69002D01*
Y-70335D01*
X180832Y-71001D01*
Y-67003D02*
X181499Y-66336D01*
Y-65003D01*
X180832Y-64337D01*
X180166D01*
X179499Y-65003D01*
Y-65670D01*
Y-65003D01*
X178833Y-64337D01*
X178166D01*
X177500Y-65003D01*
Y-66336D01*
X178166Y-67003D01*
X171000Y-75000D02*
X174999D01*
Y-73001D01*
X174332Y-72334D01*
X172999D01*
X172333Y-73001D01*
Y-75000D01*
Y-73667D02*
X171000Y-72334D01*
Y-68335D02*
Y-71001D01*
X173666Y-68335D01*
X174332D01*
X174999Y-69002D01*
Y-70335D01*
X174332Y-71001D01*
Y-67003D02*
X174999Y-66336D01*
Y-65003D01*
X174332Y-64337D01*
X171667D01*
X171000Y-65003D01*
Y-66336D01*
X171667Y-67003D01*
X174332D01*
X-3000Y-110000D02*
Y-106001D01*
X-4999D01*
X-5666Y-106668D01*
Y-108001D01*
X-4999Y-108667D01*
X-3000D01*
X-4333D02*
X-5666Y-110000D01*
X-6999D02*
X-8332D01*
X-7665D01*
Y-106001D01*
X-6999Y-106668D01*
X-12997Y-110000D02*
X-10331D01*
X-12997Y-107334D01*
Y-106668D01*
X-12330Y-106001D01*
X-10997D01*
X-10331Y-106668D01*
X190000Y-48000D02*
Y-44001D01*
X188001D01*
X187334Y-44668D01*
Y-46001D01*
X188001Y-46667D01*
X190000D01*
X188667D02*
X187334Y-48000D01*
X186001D02*
X184668D01*
X185335D01*
Y-44001D01*
X186001Y-44668D01*
X182669Y-48000D02*
X181336D01*
X182003D01*
Y-44001D01*
X182669Y-44668D01*
X-3000Y-102016D02*
Y-98017D01*
X-4999D01*
X-5666Y-98684D01*
Y-100016D01*
X-4999Y-100683D01*
X-3000D01*
X-4333D02*
X-5666Y-102016D01*
X-6999Y-98684D02*
X-7665Y-98017D01*
X-8998D01*
X-9664Y-98684D01*
Y-99350D01*
X-8998Y-100016D01*
X-9664Y-100683D01*
Y-101349D01*
X-8998Y-102016D01*
X-7665D01*
X-6999Y-101349D01*
Y-100683D01*
X-7665Y-100016D01*
X-6999Y-99350D01*
Y-98684D01*
X-7665Y-100016D02*
X-8998D01*
X179000Y-48000D02*
Y-44001D01*
X177001D01*
X176334Y-44668D01*
Y-46001D01*
X177001Y-46667D01*
X179000D01*
X177667D02*
X176334Y-48000D01*
X175001Y-44001D02*
X172336D01*
Y-44668D01*
X175001Y-47334D01*
Y-48000D01*
X186334Y-131333D02*
Y-128668D01*
X187001Y-128001D01*
X188333D01*
X189000Y-128668D01*
Y-131333D01*
X188333Y-132000D01*
X187001D01*
X187667Y-130667D02*
X186334Y-132000D01*
X187001D02*
X186334Y-131333D01*
X183002Y-132000D02*
Y-128001D01*
X185001Y-130001D01*
X182335D01*
X187334Y-67334D02*
Y-64668D01*
X188001Y-64001D01*
X189333D01*
X190000Y-64668D01*
Y-67334D01*
X189333Y-68000D01*
X188001D01*
X188667Y-66667D02*
X187334Y-68000D01*
X188001D02*
X187334Y-67334D01*
X186001Y-64668D02*
X185335Y-64001D01*
X184002D01*
X183335Y-64668D01*
Y-65334D01*
X184002Y-66001D01*
X184668D01*
X184002D01*
X183335Y-66667D01*
Y-67334D01*
X184002Y-68000D01*
X185335D01*
X186001Y-67334D01*
X-5666Y-121334D02*
Y-118668D01*
X-4999Y-118001D01*
X-3666D01*
X-3000Y-118668D01*
Y-121334D01*
X-3666Y-122000D01*
X-4999D01*
X-4333Y-120667D02*
X-5666Y-122000D01*
X-4999D02*
X-5666Y-121334D01*
X-9664Y-122000D02*
X-6999D01*
X-9664Y-119334D01*
Y-118668D01*
X-8998Y-118001D01*
X-7665D01*
X-6999Y-118668D01*
X197334Y-48334D02*
Y-45668D01*
X198001Y-45001D01*
X199334D01*
X200000Y-45668D01*
Y-48334D01*
X199334Y-49000D01*
X198001D01*
X198667Y-47667D02*
X197334Y-49000D01*
X198001D02*
X197334Y-48334D01*
X196001Y-49000D02*
X194668D01*
X195335D01*
Y-45001D01*
X196001Y-45668D01*
X218000Y-121001D02*
Y-125000D01*
X216001D01*
X215334Y-124334D01*
Y-121668D01*
X216001Y-121001D01*
X218000D01*
X214001Y-121668D02*
X213335Y-121001D01*
X212002D01*
X211335Y-121668D01*
Y-122334D01*
X212002Y-123001D01*
X211335Y-123667D01*
Y-124334D01*
X212002Y-125000D01*
X213335D01*
X214001Y-124334D01*
Y-123667D01*
X213335Y-123001D01*
X214001Y-122334D01*
Y-121668D01*
X213335Y-123001D02*
X212002D01*
X218000Y-65501D02*
Y-69500D01*
X216001D01*
X215334Y-68834D01*
Y-66168D01*
X216001Y-65501D01*
X218000D01*
X214001D02*
X211335D01*
Y-66168D01*
X214001Y-68834D01*
Y-69500D01*
X-3000Y-125001D02*
Y-129000D01*
X-4999D01*
X-5666Y-128333D01*
Y-125668D01*
X-4999Y-125001D01*
X-3000D01*
X-9664D02*
X-8332Y-125668D01*
X-6999Y-127001D01*
Y-128333D01*
X-7665Y-129000D01*
X-8998D01*
X-9664Y-128333D01*
Y-127667D01*
X-8998Y-127001D01*
X-6999D01*
X220647Y-7822D02*
Y-11821D01*
X218648D01*
X217981Y-11154D01*
Y-8488D01*
X218648Y-7822D01*
X220647D01*
X213983D02*
X216649D01*
Y-9821D01*
X215316Y-9155D01*
X214649D01*
X213983Y-9821D01*
Y-11154D01*
X214649Y-11821D01*
X215982D01*
X216649Y-11154D01*
X47000Y-86001D02*
Y-90000D01*
X45001D01*
X44334Y-89334D01*
Y-86668D01*
X45001Y-86001D01*
X47000D01*
X41002Y-90000D02*
Y-86001D01*
X43001Y-88001D01*
X40336D01*
X4000Y-16001D02*
Y-20000D01*
X2001D01*
X1334Y-19333D01*
Y-16668D01*
X2001Y-16001D01*
X4000D01*
X1Y-16668D02*
X-665Y-16001D01*
X-1998D01*
X-2664Y-16668D01*
Y-17334D01*
X-1998Y-18001D01*
X-1332D01*
X-1998D01*
X-2664Y-18667D01*
Y-19333D01*
X-1998Y-20000D01*
X-665D01*
X1Y-19333D01*
X4000Y-28001D02*
Y-32000D01*
X2001D01*
X1334Y-31334D01*
Y-28668D01*
X2001Y-28001D01*
X4000D01*
X-2664Y-32000D02*
X1D01*
X-2664Y-29334D01*
Y-28668D01*
X-1998Y-28001D01*
X-665D01*
X1Y-28668D01*
X41000Y-37001D02*
Y-41000D01*
X39001D01*
X38334Y-40334D01*
Y-37668D01*
X39001Y-37001D01*
X41000D01*
X37001Y-41000D02*
X35668D01*
X36335D01*
Y-37001D01*
X37001Y-37668D01*
X216334Y-171668D02*
X217001Y-171001D01*
X218334D01*
X219000Y-171668D01*
Y-174334D01*
X218334Y-175000D01*
X217001D01*
X216334Y-174334D01*
X212335Y-175000D02*
X215001D01*
X212335Y-172334D01*
Y-171668D01*
X213002Y-171001D01*
X214335D01*
X215001Y-171668D01*
X211003D02*
X210336Y-171001D01*
X209003D01*
X208337Y-171668D01*
Y-172334D01*
X209003Y-173001D01*
X208337Y-173667D01*
Y-174334D01*
X209003Y-175000D01*
X210336D01*
X211003Y-174334D01*
Y-173667D01*
X210336Y-173001D01*
X211003Y-172334D01*
Y-171668D01*
X210336Y-173001D02*
X209003D01*
X100832Y-94834D02*
X101499Y-95501D01*
Y-96834D01*
X100832Y-97500D01*
X98166D01*
X97500Y-96834D01*
Y-95501D01*
X98166Y-94834D01*
X97500Y-90835D02*
Y-93501D01*
X100166Y-90835D01*
X100832D01*
X101499Y-91502D01*
Y-92835D01*
X100832Y-93501D01*
X101499Y-89503D02*
Y-86837D01*
X100832D01*
X98166Y-89503D01*
X97500D01*
X91332Y-100334D02*
X91999Y-101001D01*
Y-102334D01*
X91332Y-103000D01*
X88666D01*
X88000Y-102334D01*
Y-101001D01*
X88666Y-100334D01*
X88000Y-96336D02*
Y-99001D01*
X90666Y-96336D01*
X91332D01*
X91999Y-97002D01*
Y-98335D01*
X91332Y-99001D01*
X91999Y-92337D02*
X91332Y-93670D01*
X89999Y-95003D01*
X88666D01*
X88000Y-94336D01*
Y-93003D01*
X88666Y-92337D01*
X89333D01*
X89999Y-93003D01*
Y-95003D01*
X123332Y-94834D02*
X123999Y-95501D01*
Y-96834D01*
X123332Y-97500D01*
X120667D01*
X120000Y-96834D01*
Y-95501D01*
X120667Y-94834D01*
X120000Y-90835D02*
Y-93501D01*
X122666Y-90835D01*
X123332D01*
X123999Y-91502D01*
Y-92835D01*
X123332Y-93501D01*
X123999Y-86837D02*
Y-89503D01*
X121999D01*
X122666Y-88170D01*
Y-87503D01*
X121999Y-86837D01*
X120667D01*
X120000Y-87503D01*
Y-88836D01*
X120667Y-89503D01*
X110832Y-99834D02*
X111499Y-100501D01*
Y-101834D01*
X110832Y-102500D01*
X108167D01*
X107500Y-101834D01*
Y-100501D01*
X108167Y-99834D01*
X107500Y-95836D02*
Y-98501D01*
X110166Y-95836D01*
X110832D01*
X111499Y-96502D01*
Y-97835D01*
X110832Y-98501D01*
X107500Y-92503D02*
X111499D01*
X109499Y-94503D01*
Y-91837D01*
X143332Y-94834D02*
X143999Y-95501D01*
Y-96834D01*
X143332Y-97500D01*
X140666D01*
X140000Y-96834D01*
Y-95501D01*
X140666Y-94834D01*
X140000Y-90835D02*
Y-93501D01*
X142666Y-90835D01*
X143332D01*
X143999Y-91502D01*
Y-92835D01*
X143332Y-93501D01*
Y-89503D02*
X143999Y-88836D01*
Y-87503D01*
X143332Y-86837D01*
X142666D01*
X141999Y-87503D01*
Y-88170D01*
Y-87503D01*
X141333Y-86837D01*
X140666D01*
X140000Y-87503D01*
Y-88836D01*
X140666Y-89503D01*
X133332Y-99834D02*
X133999Y-100501D01*
Y-101834D01*
X133332Y-102500D01*
X130666D01*
X130000Y-101834D01*
Y-100501D01*
X130666Y-99834D01*
X130000Y-95836D02*
Y-98501D01*
X132666Y-95836D01*
X133332D01*
X133999Y-96502D01*
Y-97835D01*
X133332Y-98501D01*
X130000Y-91837D02*
Y-94503D01*
X132666Y-91837D01*
X133332D01*
X133999Y-92503D01*
Y-93836D01*
X133332Y-94503D01*
X165832Y-94834D02*
X166499Y-95501D01*
Y-96834D01*
X165832Y-97500D01*
X163166D01*
X162500Y-96834D01*
Y-95501D01*
X163166Y-94834D01*
X162500Y-90835D02*
Y-93501D01*
X165166Y-90835D01*
X165832D01*
X166499Y-91502D01*
Y-92835D01*
X165832Y-93501D01*
X162500Y-89503D02*
Y-88170D01*
Y-88836D01*
X166499D01*
X165832Y-89503D01*
X153332Y-99834D02*
X153999Y-100501D01*
Y-101834D01*
X153332Y-102500D01*
X150666D01*
X150000Y-101834D01*
Y-100501D01*
X150666Y-99834D01*
X150000Y-95836D02*
Y-98501D01*
X152666Y-95836D01*
X153332D01*
X153999Y-96502D01*
Y-97835D01*
X153332Y-98501D01*
Y-94503D02*
X153999Y-93836D01*
Y-92503D01*
X153332Y-91837D01*
X150666D01*
X150000Y-92503D01*
Y-93836D01*
X150666Y-94503D01*
X153332D01*
X212834Y-101168D02*
X213501Y-100501D01*
X214834D01*
X215500Y-101168D01*
Y-103833D01*
X214834Y-104500D01*
X213501D01*
X212834Y-103833D01*
X211501Y-104500D02*
X210168D01*
X210835D01*
Y-100501D01*
X211501Y-101168D01*
X208169Y-100501D02*
X205503D01*
Y-101168D01*
X208169Y-103833D01*
Y-104500D01*
X-18166Y-147168D02*
X-17499Y-146501D01*
X-16166D01*
X-15500Y-147168D01*
Y-149834D01*
X-16166Y-150500D01*
X-17499D01*
X-18166Y-149834D01*
X-19499Y-150500D02*
X-20832D01*
X-20165D01*
Y-146501D01*
X-19499Y-147168D01*
X-25497Y-150500D02*
X-22831D01*
X-25497Y-147834D01*
Y-147168D01*
X-24830Y-146501D01*
X-23497D01*
X-22831Y-147168D01*
X334Y-146668D02*
X1001Y-146001D01*
X2334D01*
X3000Y-146668D01*
Y-149334D01*
X2334Y-150000D01*
X1001D01*
X334Y-149334D01*
X-999Y-150000D02*
X-2332D01*
X-1665D01*
Y-146001D01*
X-999Y-146668D01*
X-4331Y-150000D02*
X-5664D01*
X-4997D01*
Y-146001D01*
X-4331Y-146668D01*
X212334Y-58668D02*
X213001Y-58001D01*
X214334D01*
X215000Y-58668D01*
Y-61334D01*
X214334Y-62000D01*
X213001D01*
X212334Y-61334D01*
X211001Y-62000D02*
X209668D01*
X210335D01*
Y-58001D01*
X211001Y-58668D01*
X207669D02*
X207003Y-58001D01*
X205670D01*
X205003Y-58668D01*
Y-61334D01*
X205670Y-62000D01*
X207003D01*
X207669Y-61334D01*
Y-58668D01*
X44334Y-71668D02*
X45001Y-71001D01*
X46334D01*
X47000Y-71668D01*
Y-74334D01*
X46334Y-75000D01*
X45001D01*
X44334Y-74334D01*
X43001Y-71001D02*
X40336D01*
Y-71668D01*
X43001Y-74334D01*
Y-75000D01*
X44334Y-61668D02*
X45001Y-61001D01*
X46334D01*
X47000Y-61668D01*
Y-64334D01*
X46334Y-65000D01*
X45001D01*
X44334Y-64334D01*
X40336Y-61001D02*
X41668Y-61668D01*
X43001Y-63001D01*
Y-64334D01*
X42335Y-65000D01*
X41002D01*
X40336Y-64334D01*
Y-63667D01*
X41002Y-63001D01*
X43001D01*
X10334Y-11668D02*
X11001Y-11001D01*
X12333D01*
X13000Y-11668D01*
Y-14333D01*
X12333Y-15000D01*
X11001D01*
X10334Y-14333D01*
X6335Y-11001D02*
X9001D01*
Y-13001D01*
X7668Y-12334D01*
X7002D01*
X6335Y-13001D01*
Y-14333D01*
X7002Y-15000D01*
X8335D01*
X9001Y-14333D01*
X28334Y-11668D02*
X29001Y-11001D01*
X30334D01*
X31000Y-11668D01*
Y-14333D01*
X30334Y-15000D01*
X29001D01*
X28334Y-14333D01*
X25002Y-15000D02*
Y-11001D01*
X27001Y-13001D01*
X24336D01*
X38334Y-11668D02*
X39001Y-11001D01*
X40334D01*
X41000Y-11668D01*
Y-14333D01*
X40334Y-15000D01*
X39001D01*
X38334Y-14333D01*
X37001Y-11668D02*
X36335Y-11001D01*
X35002D01*
X34336Y-11668D01*
Y-12334D01*
X35002Y-13001D01*
X35668D01*
X35002D01*
X34336Y-13667D01*
Y-14333D01*
X35002Y-15000D01*
X36335D01*
X37001Y-14333D01*
X63334Y-60668D02*
X64001Y-60001D01*
X65334D01*
X66000Y-60668D01*
Y-63334D01*
X65334Y-64000D01*
X64001D01*
X63334Y-63334D01*
X59336Y-64000D02*
X62001D01*
X59336Y-61334D01*
Y-60668D01*
X60002Y-60001D01*
X61335D01*
X62001Y-60668D01*
X72334D02*
X73001Y-60001D01*
X74334D01*
X75000Y-60668D01*
Y-63334D01*
X74334Y-64000D01*
X73001D01*
X72334Y-63334D01*
X71001Y-64000D02*
X69668D01*
X70335D01*
Y-60001D01*
X71001Y-60668D01*
X58500Y-101668D02*
X57834Y-101001D01*
X56501D01*
X55834Y-101668D01*
Y-104333D01*
X56501Y-105000D01*
X57834D01*
X58500Y-104333D01*
Y-101668D01*
X54501Y-105000D02*
Y-104333D01*
X53835D01*
Y-105000D01*
X54501D01*
X51169D02*
X49836D01*
X50503D01*
Y-101001D01*
X51169Y-101668D01*
X43838Y-102334D02*
Y-104333D01*
X43172Y-105000D01*
X41172D01*
Y-102334D01*
X37174Y-101001D02*
X39839D01*
Y-103001D01*
X38506D01*
X39839D01*
Y-105000D01*
X61500Y-130000D02*
X60167D01*
X60834D01*
Y-126001D01*
X61500Y-126668D01*
X58168D02*
X57501Y-126001D01*
X56168D01*
X55502Y-126668D01*
Y-129333D01*
X56168Y-130000D01*
X57501D01*
X58168Y-129333D01*
Y-126668D01*
X54169D02*
X53503Y-126001D01*
X52170D01*
X51503Y-126668D01*
Y-129333D01*
X52170Y-130000D01*
X53503D01*
X54169Y-129333D01*
Y-126668D01*
X46172Y-130000D02*
Y-126001D01*
Y-128667D02*
X44172Y-127334D01*
X46172Y-128667D02*
X44172Y-130000D01*
X40174Y-126001D02*
X41506D01*
X42173Y-126668D01*
Y-129333D01*
X41506Y-130000D01*
X40174D01*
X39507Y-129333D01*
Y-126668D01*
X40174Y-126001D01*
X38174D02*
Y-130000D01*
Y-128001D01*
X37508Y-127334D01*
X36175D01*
X35508Y-128001D01*
Y-130000D01*
X34176D02*
Y-127334D01*
X33509D01*
X32843Y-128001D01*
Y-130000D01*
Y-128001D01*
X32176Y-127334D01*
X31510Y-128001D01*
Y-130000D01*
X58500Y-132668D02*
X57834Y-132001D01*
X56501D01*
X55834Y-132668D01*
Y-135334D01*
X56501Y-136000D01*
X57834D01*
X58500Y-135334D01*
Y-132668D01*
X54501Y-136000D02*
Y-135334D01*
X53835D01*
Y-136000D01*
X54501D01*
X51169D02*
X49836D01*
X50503D01*
Y-132001D01*
X51169Y-132668D01*
X43838Y-133334D02*
Y-135334D01*
X43172Y-136000D01*
X41172D01*
Y-133334D01*
X37174Y-132001D02*
X39839D01*
Y-134001D01*
X38506D01*
X39839D01*
Y-136000D01*
X61500Y-161000D02*
X60167D01*
X60834D01*
Y-157001D01*
X61500Y-157668D01*
X58168D02*
X57501Y-157001D01*
X56168D01*
X55502Y-157668D01*
Y-160334D01*
X56168Y-161000D01*
X57501D01*
X58168Y-160334D01*
Y-157668D01*
X54169D02*
X53503Y-157001D01*
X52170D01*
X51503Y-157668D01*
Y-160334D01*
X52170Y-161000D01*
X53503D01*
X54169Y-160334D01*
Y-157668D01*
X46172Y-161000D02*
Y-157001D01*
Y-159667D02*
X44172Y-158334D01*
X46172Y-159667D02*
X44172Y-161000D01*
X40174Y-157001D02*
X41506D01*
X42173Y-157668D01*
Y-160334D01*
X41506Y-161000D01*
X40174D01*
X39507Y-160334D01*
Y-157668D01*
X40174Y-157001D01*
X38174D02*
Y-161000D01*
Y-159001D01*
X37508Y-158334D01*
X36175D01*
X35508Y-159001D01*
Y-161000D01*
X34176D02*
Y-158334D01*
X33509D01*
X32843Y-159001D01*
Y-161000D01*
Y-159001D01*
X32176Y-158334D01*
X31510Y-159001D01*
Y-161000D01*
M02*
