M48
;Layer_Color=9474304
;FILE_FORMAT=2:5
INCH,TZ
;TYPE=PLATED
T1F00S00C0.02800
T2F00S00C0.03543
T3F00S00C0.03937
T5F00S00C0.05118
;TYPE=NON_PLATED
T6F00S00C0.10827
%
T01
X79000Y-145000
X85000Y-142000
X82000Y-136000
X79000Y-130000
X85000Y-127000
Y-151000
X70000Y-98000
X62000
X52000Y-97000
X59000Y-68000
X51000Y-62000
X174000Y-80000
X179047Y-117047
X172000Y-131000
X168000Y-137000
X14000Y-140000
Y-130000
X10000Y-79000
X46000Y-97000
X178000Y-34000
T02
X60000Y-170000
X70000
X80000
X90000
X100000
X110000
X120000
X130000
X140000
X150000
X160000
X170000
X180000
X190000
X200000
X125000Y-158000
X120000Y-120000
X111000
X99000
X91000
X131000
X139000
X151000
X161000
X124000Y-59000
X79000Y-80000
X50000Y-170000
X40000
X30000
X20000
X10000
X0
X-10000
X-20000
X0Y-10000
Y0
X10000
X20000
X30000
X40000
X50000
Y10000
X40000
X30000
X20000
X10000
X0
X19000Y-15000
X37000Y-32000
X60000Y0
X70000
X80000
X90000
X100000
X110000
X120000
X130000
X140000
X150000
X160000
X170000
X180000
X190000
Y10000
X180000
X170000
X160000
X150000
X140000
X130000
X120000
X110000
X100000
X90000
X80000
X70000
X60000
X90000Y-15000
X100000
X110000
X120000
X130000
X140000
X150000Y-45000
X206000Y-11000
T03
X89705Y-81358
Y-63642
Y-53858
X115295
Y-63642
X132205
Y-53858
X157795
Y-63642
Y-81358
X132205
X115295
Y-36142
X132205
X157795
X89705
T05
X239913Y-172142
X232039Y-148520
X239913Y-124898
Y-103142
X232039Y-79520
X239913Y-55898
X287945
X330000Y-60000
Y-80000
Y-100000
Y-120000
Y-140000
Y-160000
X287945Y-172142
Y-124898
Y-103142
Y-34142
Y13102
X239913
X232039Y-10520
X239913Y-34142
X330000Y-40000
Y-20000
Y0
T06
X-19173Y-85551
Y5000
X209173
M30
