G04 Layer_Color=16711935*
%FSLAX25Y25*%
%MOIN*%
G70*
G01*
G75*
%ADD36R,0.06706X0.06706*%
%ADD37C,0.06706*%
%ADD38C,0.09855*%
%ADD39C,0.08674*%
%ADD40C,0.23622*%
%ADD41O,0.08674X0.22453*%
%ADD42O,0.08674X0.20485*%
%ADD43R,0.03556X0.04343*%
%ADD44R,0.09855X0.09855*%
%ADD45R,0.03950X0.03950*%
%ADD46R,0.04343X0.03556*%
%ADD47R,0.05131X0.07493*%
%ADD48R,0.03950X0.03950*%
%ADD49R,0.03950X0.04343*%
%ADD50R,0.04343X0.03950*%
%ADD51R,0.09855X0.07493*%
%ADD52R,0.07493X0.05131*%
%ADD53R,0.02572X0.07099*%
%ADD54R,0.09855X0.09855*%
%ADD55R,0.10052X0.04737*%
%ADD56R,0.10052X0.13792*%
%ADD57C,0.05800*%
D36*
X90000Y-15000D02*
D03*
X190000Y-170000D02*
D03*
X120000D02*
D03*
X160000D02*
D03*
X-10000D02*
D03*
X0D02*
D03*
Y0D02*
D03*
D37*
X100000Y-15000D02*
D03*
X110000D02*
D03*
X120000D02*
D03*
X130000D02*
D03*
X140000D02*
D03*
X180000Y-170000D02*
D03*
X170000D02*
D03*
X90000D02*
D03*
X100000D02*
D03*
X110000D02*
D03*
X130000D02*
D03*
X140000D02*
D03*
X150000D02*
D03*
X-20000D02*
D03*
X10000D02*
D03*
X20000D02*
D03*
X30000D02*
D03*
X40000D02*
D03*
X50000D02*
D03*
X60000D02*
D03*
X70000D02*
D03*
X190000Y10000D02*
D03*
Y0D02*
D03*
X180000Y10000D02*
D03*
Y0D02*
D03*
X170000Y10000D02*
D03*
Y0D02*
D03*
X160000Y10000D02*
D03*
Y0D02*
D03*
X150000Y10000D02*
D03*
Y0D02*
D03*
X140000Y10000D02*
D03*
Y0D02*
D03*
X130000Y10000D02*
D03*
Y0D02*
D03*
X120000Y10000D02*
D03*
Y0D02*
D03*
X110000Y10000D02*
D03*
Y0D02*
D03*
X100000Y10000D02*
D03*
Y0D02*
D03*
X90000Y10000D02*
D03*
Y0D02*
D03*
X80000Y10000D02*
D03*
Y0D02*
D03*
X70000Y10000D02*
D03*
Y0D02*
D03*
X60000Y10000D02*
D03*
Y0D02*
D03*
X50000Y10000D02*
D03*
Y0D02*
D03*
X40000Y10000D02*
D03*
Y0D02*
D03*
X30000Y10000D02*
D03*
Y0D02*
D03*
X20000Y10000D02*
D03*
Y0D02*
D03*
X10000Y10000D02*
D03*
Y0D02*
D03*
X0Y10000D02*
D03*
X150000Y-45000D02*
D03*
X79000Y-80000D02*
D03*
X200000Y-170000D02*
D03*
X80000D02*
D03*
X0Y-10000D02*
D03*
X151000Y-120000D02*
D03*
X161000D02*
D03*
X139000D02*
D03*
X91000D02*
D03*
X99000D02*
D03*
X111000D02*
D03*
X120000D02*
D03*
X131000D02*
D03*
X124000Y-59000D02*
D03*
X19000Y-15000D02*
D03*
X37000Y-32000D02*
D03*
X206000Y-11000D02*
D03*
X125000Y-158000D02*
D03*
D38*
X330000Y-120000D02*
D03*
Y-140000D02*
D03*
Y-160000D02*
D03*
X239913Y-172142D02*
D03*
X287945D02*
D03*
Y-124898D02*
D03*
X239913D02*
D03*
X232039Y-148520D02*
D03*
X330000Y0D02*
D03*
Y-20000D02*
D03*
Y-40000D02*
D03*
X239913Y-34142D02*
D03*
X287945D02*
D03*
Y13102D02*
D03*
X239913D02*
D03*
X232039Y-10520D02*
D03*
X239913Y-103142D02*
D03*
X287945D02*
D03*
Y-55898D02*
D03*
X239913D02*
D03*
X232039Y-79520D02*
D03*
X330000Y-60000D02*
D03*
Y-80000D02*
D03*
Y-100000D02*
D03*
D39*
X157795Y-63642D02*
D03*
Y-81358D02*
D03*
X132205Y-63642D02*
D03*
Y-81358D02*
D03*
X157795Y-36142D02*
D03*
Y-53858D02*
D03*
X132205Y-36142D02*
D03*
Y-53858D02*
D03*
X115295Y-36142D02*
D03*
Y-53858D02*
D03*
X89705Y-36142D02*
D03*
Y-53858D02*
D03*
X115295Y-63642D02*
D03*
Y-81358D02*
D03*
X89705Y-63642D02*
D03*
Y-81358D02*
D03*
D40*
X-19173Y-85551D02*
D03*
Y5000D02*
D03*
X209173D02*
D03*
D41*
X13937Y-55000D02*
D03*
D42*
X-9685D02*
D03*
D43*
X182047Y-157500D02*
D03*
X187953D02*
D03*
X180453Y-40000D02*
D03*
X174547D02*
D03*
X-22953Y-100000D02*
D03*
X-17047D02*
D03*
X-17047Y-107500D02*
D03*
X-22953D02*
D03*
D44*
X212500Y-151358D02*
D03*
Y-133642D02*
D03*
X203000Y-90858D02*
D03*
Y-73142D02*
D03*
X215000Y-38858D02*
D03*
Y-21142D02*
D03*
D45*
X197500Y-139724D02*
D03*
X193760Y-130276D02*
D03*
X201240D02*
D03*
X-20000Y-124724D02*
D03*
X-23740Y-115276D02*
D03*
X-16260D02*
D03*
D46*
X185000Y-122953D02*
D03*
Y-117047D02*
D03*
X192500Y-117047D02*
D03*
Y-122953D02*
D03*
X172500Y-54547D02*
D03*
Y-60453D02*
D03*
X180000Y-54547D02*
D03*
Y-60453D02*
D03*
X187500Y-34547D02*
D03*
Y-40453D02*
D03*
X27500Y-116047D02*
D03*
Y-121953D02*
D03*
X42500Y-116047D02*
D03*
Y-121953D02*
D03*
X20000Y-116047D02*
D03*
Y-121953D02*
D03*
X35000Y-116047D02*
D03*
Y-121953D02*
D03*
X57500Y-116047D02*
D03*
Y-121953D02*
D03*
X50000Y-116047D02*
D03*
Y-121953D02*
D03*
X72500Y-116047D02*
D03*
Y-121953D02*
D03*
X65000Y-116047D02*
D03*
Y-121953D02*
D03*
X57500Y-147047D02*
D03*
Y-152953D02*
D03*
X65000Y-147047D02*
D03*
Y-152953D02*
D03*
X50000Y-147047D02*
D03*
Y-152953D02*
D03*
X27500Y-147047D02*
D03*
Y-152953D02*
D03*
X72500Y-147047D02*
D03*
Y-152953D02*
D03*
X20000Y-147047D02*
D03*
Y-152953D02*
D03*
X42500Y-147047D02*
D03*
Y-152953D02*
D03*
X35000Y-147047D02*
D03*
Y-152953D02*
D03*
D47*
X217815Y-165000D02*
D03*
X207185D02*
D03*
X215315Y-110000D02*
D03*
X204685D02*
D03*
X215315Y-52500D02*
D03*
X204685D02*
D03*
X35315Y-72500D02*
D03*
X24685D02*
D03*
X2815Y-155000D02*
D03*
X-7815D02*
D03*
D48*
X197224Y-57500D02*
D03*
X187776Y-61240D02*
D03*
Y-53760D02*
D03*
X204724Y-37500D02*
D03*
X195276Y-41240D02*
D03*
Y-33760D02*
D03*
D49*
X52244Y-109000D02*
D03*
X57756D02*
D03*
X67244D02*
D03*
X72756D02*
D03*
X37244D02*
D03*
X42756D02*
D03*
X22244D02*
D03*
X27756D02*
D03*
X67244Y-140000D02*
D03*
X72756D02*
D03*
X-22756Y-155000D02*
D03*
X-17244D02*
D03*
X52244Y-140000D02*
D03*
X57756D02*
D03*
X37244D02*
D03*
X42756D02*
D03*
X29744Y-62500D02*
D03*
X35256D02*
D03*
X22244Y-140000D02*
D03*
X27756D02*
D03*
D50*
X72500Y-49744D02*
D03*
Y-55256D02*
D03*
X90000Y-107244D02*
D03*
Y-112756D02*
D03*
X110000Y-107244D02*
D03*
Y-112756D02*
D03*
X132500Y-107244D02*
D03*
Y-112756D02*
D03*
X37500Y-25256D02*
D03*
Y-19744D02*
D03*
X152500Y-107244D02*
D03*
Y-112756D02*
D03*
D51*
X16732Y-87500D02*
D03*
X33268D02*
D03*
X-25768Y-30000D02*
D03*
X-9232D02*
D03*
X-25768Y-17500D02*
D03*
X-9232D02*
D03*
D52*
X120000Y-112815D02*
D03*
Y-102185D02*
D03*
X162500Y-112815D02*
D03*
Y-102185D02*
D03*
X10000Y-19685D02*
D03*
Y-30315D02*
D03*
X100000Y-112815D02*
D03*
Y-102185D02*
D03*
X27500Y-19685D02*
D03*
Y-30315D02*
D03*
X62500Y-55315D02*
D03*
Y-44685D02*
D03*
X142500Y-112815D02*
D03*
Y-102185D02*
D03*
D53*
X159075Y-157067D02*
D03*
X156516D02*
D03*
X153957D02*
D03*
X151398D02*
D03*
X148839D02*
D03*
X146280D02*
D03*
X143720D02*
D03*
X141161D02*
D03*
X138602D02*
D03*
X136043D02*
D03*
X133484D02*
D03*
X130925D02*
D03*
X159075Y-127933D02*
D03*
X156516D02*
D03*
X153957D02*
D03*
X151398D02*
D03*
X148839D02*
D03*
X146280D02*
D03*
X143720D02*
D03*
X141161D02*
D03*
X138602D02*
D03*
X136043D02*
D03*
X133484D02*
D03*
X130925D02*
D03*
X119075Y-157067D02*
D03*
X116516D02*
D03*
X113957D02*
D03*
X111398D02*
D03*
X108839D02*
D03*
X106280D02*
D03*
X103720D02*
D03*
X101161D02*
D03*
X98602D02*
D03*
X96043D02*
D03*
X93484D02*
D03*
X90925D02*
D03*
X119075Y-127933D02*
D03*
X116516D02*
D03*
X113957D02*
D03*
X111398D02*
D03*
X108839D02*
D03*
X106280D02*
D03*
X103720D02*
D03*
X101161D02*
D03*
X98602D02*
D03*
X96043D02*
D03*
X93484D02*
D03*
X90925D02*
D03*
D54*
X-3642Y-137500D02*
D03*
X-21358D02*
D03*
X46358Y-50000D02*
D03*
X28642D02*
D03*
D55*
X76910Y-15945D02*
D03*
Y-25000D02*
D03*
Y-34055D02*
D03*
D56*
X53091Y-25000D02*
D03*
D57*
X62000Y-98000D02*
D03*
X59000Y-68000D02*
D03*
X168000Y-137000D02*
D03*
X174000Y-80000D02*
D03*
X172000Y-131000D02*
D03*
X178000Y-34000D02*
D03*
X179047Y-117047D02*
D03*
X70000Y-98000D02*
D03*
X46000Y-97000D02*
D03*
X52000D02*
D03*
X10000Y-79000D02*
D03*
X51000Y-62000D02*
D03*
X82000Y-136000D02*
D03*
X79000Y-130000D02*
D03*
X85000Y-127000D02*
D03*
Y-142000D02*
D03*
X14000Y-130000D02*
D03*
Y-140000D02*
D03*
X79000Y-145000D02*
D03*
X85000Y-151000D02*
D03*
M02*
