G04 Layer_Physical_Order=1*
G04 Layer_Color=255*
%FSLAX25Y25*%
%MOIN*%
G70*
G01*
G75*
%ADD10C,0.01000*%
%ADD11C,0.03000*%
%ADD12C,0.10000*%
%ADD13C,0.02000*%
%ADD14R,0.05906X0.05906*%
%ADD15C,0.05906*%
%ADD16C,0.09055*%
%ADD17C,0.07874*%
%ADD18O,0.07874X0.21654*%
%ADD19O,0.07874X0.19685*%
%ADD20C,0.05000*%
D10*
X152000Y-19000D02*
X171485D01*
X140000Y-7000D02*
X152000Y-19000D01*
X140000Y-7000D02*
Y0D01*
X150000Y-14172D02*
Y0D01*
Y-14172D02*
X152828Y-17000D01*
X172314D01*
X140000Y-15000D02*
Y-10000D01*
X130000Y0D02*
X140000Y-10000D01*
X161000Y-15000D02*
X173142D01*
X160000Y-14000D02*
X161000Y-15000D01*
X160000Y-14000D02*
Y0D01*
X170000Y-12000D02*
X171000Y-13000D01*
X170000Y-12000D02*
Y0D01*
X171000Y-13000D02*
X173970D01*
X190000Y-29030D01*
Y-99172D02*
Y-29030D01*
X173142Y-15000D02*
X188000Y-29858D01*
Y-100000D02*
Y-29858D01*
X172314Y-17000D02*
X186000Y-30686D01*
Y-101000D02*
Y-30686D01*
X171485Y-19000D02*
X184000Y-31515D01*
Y-102000D02*
Y-31515D01*
X108000Y-21000D02*
X170657D01*
X182000Y-32343D01*
Y-103000D02*
Y-32343D01*
X68000Y-2000D02*
X70000Y0D01*
X68000Y-94343D02*
Y-2000D01*
X66000Y-96343D02*
X68000Y-94343D01*
X66000Y-99657D02*
Y-96343D01*
Y-99657D02*
X68343Y-102000D01*
X71657D01*
X74000Y-99657D01*
Y-96343D01*
X72000Y-94343D02*
X74000Y-96343D01*
X72000Y-94343D02*
Y-40000D01*
X83000Y-29000D01*
X63000Y-69657D02*
Y-3297D01*
X62000Y-70657D02*
X63000Y-69657D01*
X62000Y-98000D02*
Y-70657D01*
X58000Y-67000D02*
X59000Y-68000D01*
X55000Y-91515D02*
Y-25000D01*
X63000Y-3297D02*
X64453Y-1844D01*
X58000Y-67000D02*
Y-25172D01*
X190000Y-99172D02*
X194000Y-103172D01*
Y-126314D02*
Y-103172D01*
X173314Y-147000D02*
X194000Y-126314D01*
X188000Y-100000D02*
X192000Y-104000D01*
X186000Y-101000D02*
X189047Y-104047D01*
X192000Y-125485D02*
Y-104000D01*
X189047Y-125610D02*
Y-104047D01*
X187047Y-124781D02*
Y-105390D01*
X187000Y-105343D02*
X187047Y-105390D01*
X187000Y-105343D02*
Y-105000D01*
X184000Y-102000D02*
X187000Y-105000D01*
X185047Y-123953D02*
Y-106219D01*
X185000Y-106172D02*
X185047Y-106219D01*
X185000Y-106172D02*
Y-106000D01*
X182000Y-103000D02*
X185000Y-106000D01*
X183047Y-119953D02*
Y-107047D01*
X180000Y-104000D02*
X183047Y-107047D01*
X180000Y-104000D02*
Y-74266D01*
X172000Y-131000D02*
X183047Y-119953D01*
X171657Y-143000D02*
X189047Y-125610D01*
X170828Y-141000D02*
X187047Y-124781D01*
X172000Y-137000D02*
X185047Y-123953D01*
X169000Y-63266D02*
X180000Y-74266D01*
X172485Y-145000D02*
X192000Y-125485D01*
X168000Y-137000D02*
X172000D01*
X163232Y-101232D02*
X179047Y-117047D01*
X167000Y-73000D02*
Y-33000D01*
X163232Y-101232D02*
Y-33232D01*
X166343Y-141000D02*
X170828D01*
X167000Y-73000D02*
X174000Y-80000D01*
X83844Y-6156D02*
X90000Y0D01*
X83844Y-21000D02*
Y-6156D01*
Y-21000D02*
X87844Y-25000D01*
X161828D01*
X169000Y-32172D01*
Y-63266D02*
Y-32172D01*
X167000Y-23000D02*
X178000Y-34000D01*
X96000Y-23000D02*
X167000D01*
X94453Y-21453D02*
X96000Y-23000D01*
X104453Y-17453D02*
X108000Y-21000D01*
X104453Y-17453D02*
Y-10547D01*
X84453Y-1844D02*
Y11844D01*
X81844Y-4453D02*
X84453Y-1844D01*
X81844Y-21844D02*
Y-4453D01*
Y-21844D02*
X87000Y-27000D01*
X100000Y-6095D02*
Y0D01*
Y-6095D02*
X104453Y-10547D01*
X130000Y6297D02*
Y10000D01*
X125547Y1844D02*
X130000Y6297D01*
X125547Y-1844D02*
Y1844D01*
Y-1844D02*
X130000Y-6297D01*
Y-15000D02*
Y-6297D01*
X60000Y-170000D02*
X64453Y-174453D01*
X185547D01*
X190000Y-170000D01*
X70000Y-98000D02*
Y-6297D01*
X74453Y-1844D01*
Y4453D01*
X80000Y10000D01*
X64453Y-1844D02*
Y4453D01*
X70000Y10000D01*
X22000Y-8243D02*
X28000Y-14243D01*
X22000Y-8243D02*
Y-2000D01*
X20000Y0D02*
X22000Y-2000D01*
X10000Y-15000D02*
X24000Y-29000D01*
X10000Y-15000D02*
Y0D01*
X65547Y9250D02*
Y11844D01*
X60000Y3703D02*
X65547Y9250D01*
X60000Y0D02*
Y3703D01*
X161000Y-27000D02*
X167000Y-33000D01*
X87000Y-27000D02*
X161000D01*
X94453Y-21453D02*
Y11844D01*
X55547Y5547D02*
Y11844D01*
X50000Y0D02*
X55547Y5547D01*
X159000Y-29000D02*
X163232Y-33232D01*
X83000Y-29000D02*
X159000D01*
X28000Y-73000D02*
Y-14243D01*
Y-73000D02*
X52000Y-97000D01*
X24000Y-75000D02*
Y-29000D01*
Y-75000D02*
X46000Y-97000D01*
X10000Y-79000D02*
X22343D01*
X50000Y6297D02*
Y10000D01*
X45547Y1844D02*
X50000Y6297D01*
X45547Y-12719D02*
Y1844D01*
Y-12719D02*
X58000Y-25172D01*
X30000Y0D02*
X55000Y-25000D01*
X44453Y-174453D02*
X55547D01*
X40000Y-170000D02*
X44453Y-174453D01*
X55547D02*
X60000Y-170000D01*
X24453Y-174453D02*
X35547D01*
X20000Y-170000D02*
X24453Y-174453D01*
X35547D02*
X40000Y-170000D01*
X15000Y-165000D02*
X20000Y-170000D01*
X53657Y-101000D02*
X56000Y-98657D01*
Y-95343D01*
X53657Y-93000D02*
X56000Y-95343D01*
X50828Y-93000D02*
X53657D01*
X50757Y-92929D02*
X50828Y-93000D01*
X50757Y-92929D02*
Y-92929D01*
X54485Y-103000D02*
X58000Y-99485D01*
Y-94515D01*
X55000Y-91515D02*
X58000Y-94515D01*
X22343Y-79000D02*
X44343Y-101000D01*
X50757Y-92929D02*
X51000Y-92686D01*
X44343Y-101000D02*
X53657D01*
X51000Y-92686D02*
Y-62000D01*
X163858Y-147000D02*
X173314D01*
X164686Y-145000D02*
X172485D01*
X165515Y-143000D02*
X171657D01*
X87000Y-140000D02*
X156858D01*
X163858Y-147000D01*
X157686Y-138000D02*
X164686Y-145000D01*
X88000Y-136000D02*
X158515D01*
X165515Y-143000D01*
X159343Y-134000D02*
X166343Y-141000D01*
X92000Y-134000D02*
X159343D01*
X85000Y-127000D02*
X92000Y-134000D01*
X5000Y-165000D02*
X15000D01*
X0Y-170000D02*
X5000Y-165000D01*
X9000Y-147000D02*
X21000Y-159000D01*
X117703D01*
X9000Y-147000D02*
Y-118000D01*
X24000Y-103000D01*
X54485D01*
X14000Y-145000D02*
Y-140000D01*
X126844Y-153547D02*
X135297Y-162000D01*
X117703Y-159000D02*
X123156Y-153547D01*
X126844D01*
X82000Y-130000D02*
X88000Y-136000D01*
X79000Y-130000D02*
X82000D01*
X84000Y-138000D02*
X157686D01*
X82000Y-136000D02*
X84000Y-138000D01*
X85000Y-142000D02*
X87000Y-140000D01*
X14000Y-145000D02*
X26000Y-157000D01*
X116874D01*
X122327Y-151547D01*
X14000Y-130000D02*
X21000Y-137000D01*
Y-149000D02*
Y-137000D01*
Y-149000D02*
X27000Y-155000D01*
X116046D01*
X121499Y-149547D01*
X85000Y-151000D02*
X117218D01*
X120670Y-147547D01*
X131204D01*
X79000Y-145000D02*
X80000Y-146000D01*
X87000D01*
X90000Y-149000D01*
X116389D01*
X119842Y-145547D01*
X135297Y-162000D02*
X172000D01*
X180000Y-170000D01*
X201000Y-159000D02*
X209000Y-151000D01*
X122327Y-151547D02*
X129547D01*
X137000Y-159000D01*
X201000D01*
X121499Y-149547D02*
X130376D01*
X137828Y-157000D01*
X200172D01*
X207000Y-150172D01*
X131204Y-147547D02*
X138657Y-155000D01*
X199343D01*
X205000Y-149343D01*
X119842Y-145547D02*
X132033D01*
X139485Y-153000D01*
X198515D01*
X203000Y-148515D01*
X209000Y-151000D02*
Y-24000D01*
X195000Y-10000D02*
X209000Y-24000D01*
X195000Y-10000D02*
Y5000D01*
X190000Y10000D02*
X195000Y5000D01*
X207000Y-150172D02*
Y-24828D01*
X185547Y-3376D02*
X207000Y-24828D01*
X185547Y-3376D02*
Y4453D01*
X180000Y10000D02*
X185547Y4453D01*
X205000Y-149343D02*
Y-25657D01*
X180000Y-657D02*
X205000Y-25657D01*
X180000Y-657D02*
Y0D01*
X203000Y-148515D02*
Y-29297D01*
X175547Y-1844D02*
X203000Y-29297D01*
X175547Y-1844D02*
Y4453D01*
X170000Y10000D02*
X175547Y4453D01*
X132205Y-81358D02*
X157795D01*
X132205Y-63642D02*
X157795D01*
X132205Y-53858D02*
X157795D01*
X132205Y-36142D02*
X157795D01*
X89705D02*
X115295D01*
X89705Y-81358D02*
X115295D01*
X89705Y-63642D02*
X115295D01*
X89705Y-53858D02*
X115295D01*
X65547Y11844D02*
X68156Y14453D01*
X81844D01*
X84453Y11844D01*
X55547D02*
X60703Y17000D01*
X89297D01*
X94453Y11844D01*
D11*
X85000Y-45000D02*
X150000D01*
X79000Y-108000D02*
Y-80000D01*
Y-108000D02*
X91000Y-120000D01*
X-9685Y-68315D02*
Y-55000D01*
X-17000Y-67000D02*
X-4000Y-80000D01*
X-17000Y-67000D02*
Y-27000D01*
X120000Y-15000D02*
Y0D01*
X25000Y-7000D02*
Y-2711D01*
Y-7000D02*
X37000Y-19000D01*
Y-32000D02*
Y-19000D01*
X15000Y-11000D02*
X19000Y-15000D01*
X15000Y-11000D02*
Y-2711D01*
X120000Y-120000D02*
X131000D01*
X213000Y-152000D02*
Y-103142D01*
Y-152000D02*
X233142Y-172142D01*
X239913D01*
X213000Y-103142D02*
X239913D01*
X-17000Y-27000D02*
X0Y-10000D01*
X155000Y-126000D02*
X161000Y-120000D01*
X99000D02*
X111000D01*
X139000D02*
X151000D01*
X124000Y-105000D02*
X139000Y-120000D01*
X124000Y-105000D02*
Y-59000D01*
X111000Y-120000D02*
Y-118000D01*
X124000Y-105000D01*
X206000Y-11000D02*
X213000Y-18000D01*
X213142Y-34142D02*
X239913D01*
X213000Y-103142D02*
Y-18000D01*
X80000Y-163000D02*
X120000D01*
X125000Y-158000D01*
X80000Y-170000D02*
Y-163000D01*
X91000Y-120000D02*
X97000Y-126000D01*
X114000D01*
X120000Y-120000D01*
X131000D02*
X137000Y-126000D01*
X155000D01*
X-4000Y-166000D02*
Y-80000D01*
Y-166000D02*
X0Y-170000D01*
X-9685Y-68315D02*
X4000Y-82000D01*
Y-149000D02*
Y-82000D01*
Y-149000D02*
X18000Y-163000D01*
X80000D01*
X79000Y-51000D02*
X85000Y-45000D01*
X79000Y-80000D02*
Y-51000D01*
D12*
X301047Y0D02*
X330000D01*
X287945Y13102D02*
X301047Y0D01*
X298000Y-20000D02*
X330000D01*
X232039Y-10520D02*
X288520D01*
X298000Y-20000D01*
X292047Y-60000D02*
X330000D01*
X287945Y-55898D02*
X292047Y-60000D01*
X291087Y-100000D02*
X330000D01*
X287945Y-103142D02*
X291087Y-100000D01*
X232520Y-80000D02*
X330000D01*
X232039Y-79520D02*
X232520Y-80000D01*
X292843Y-120000D02*
X330000D01*
X287945Y-124898D02*
X292843Y-120000D01*
X302000Y-140000D02*
X330000D01*
X293480Y-148520D02*
X302000Y-140000D01*
X232039Y-148520D02*
X293480D01*
X315000Y-160000D02*
X330000D01*
X302858Y-172142D02*
X315000Y-160000D01*
X287945Y-172142D02*
X302858D01*
X287945Y-34142D02*
X293803Y-40000D01*
X330000D01*
D13*
X10000Y10000D02*
X15000Y5000D01*
X0Y10000D02*
X10000D01*
X25000Y-2711D02*
Y5000D01*
X20000Y10000D02*
X25000Y5000D01*
X15000Y-2711D02*
Y5000D01*
X25000D02*
X35000D01*
X40000Y0D01*
D14*
X90000Y-15000D02*
D03*
X190000Y-170000D02*
D03*
X120000D02*
D03*
X160000D02*
D03*
X-10000D02*
D03*
X0D02*
D03*
Y0D02*
D03*
D15*
X100000Y-15000D02*
D03*
X110000D02*
D03*
X120000D02*
D03*
X130000D02*
D03*
X140000D02*
D03*
X180000Y-170000D02*
D03*
X170000D02*
D03*
X90000D02*
D03*
X100000D02*
D03*
X110000D02*
D03*
X130000D02*
D03*
X140000D02*
D03*
X150000D02*
D03*
X-20000D02*
D03*
X10000D02*
D03*
X20000D02*
D03*
X30000D02*
D03*
X40000D02*
D03*
X50000D02*
D03*
X60000D02*
D03*
X70000D02*
D03*
X190000Y10000D02*
D03*
Y0D02*
D03*
X180000Y10000D02*
D03*
Y0D02*
D03*
X170000Y10000D02*
D03*
Y0D02*
D03*
X160000Y10000D02*
D03*
Y0D02*
D03*
X150000Y10000D02*
D03*
Y0D02*
D03*
X140000Y10000D02*
D03*
Y0D02*
D03*
X130000Y10000D02*
D03*
Y0D02*
D03*
X120000Y10000D02*
D03*
Y0D02*
D03*
X110000Y10000D02*
D03*
Y0D02*
D03*
X100000Y10000D02*
D03*
Y0D02*
D03*
X90000Y10000D02*
D03*
Y0D02*
D03*
X80000Y10000D02*
D03*
Y0D02*
D03*
X70000Y10000D02*
D03*
Y0D02*
D03*
X60000Y10000D02*
D03*
Y0D02*
D03*
X50000Y10000D02*
D03*
Y0D02*
D03*
X40000Y10000D02*
D03*
Y0D02*
D03*
X30000Y10000D02*
D03*
Y0D02*
D03*
X20000Y10000D02*
D03*
Y0D02*
D03*
X10000Y10000D02*
D03*
Y0D02*
D03*
X0Y10000D02*
D03*
X150000Y-45000D02*
D03*
X79000Y-80000D02*
D03*
X200000Y-170000D02*
D03*
X80000D02*
D03*
X0Y-10000D02*
D03*
X151000Y-120000D02*
D03*
X161000D02*
D03*
X139000D02*
D03*
X91000D02*
D03*
X99000D02*
D03*
X111000D02*
D03*
X120000D02*
D03*
X131000D02*
D03*
X124000Y-59000D02*
D03*
X19000Y-15000D02*
D03*
X37000Y-32000D02*
D03*
X206000Y-11000D02*
D03*
X125000Y-158000D02*
D03*
D16*
X330000Y-120000D02*
D03*
Y-140000D02*
D03*
Y-160000D02*
D03*
X239913Y-172142D02*
D03*
X287945D02*
D03*
Y-124898D02*
D03*
X239913D02*
D03*
X232039Y-148520D02*
D03*
X330000Y0D02*
D03*
Y-20000D02*
D03*
Y-40000D02*
D03*
X239913Y-34142D02*
D03*
X287945D02*
D03*
Y13102D02*
D03*
X239913D02*
D03*
X232039Y-10520D02*
D03*
X239913Y-103142D02*
D03*
X287945D02*
D03*
Y-55898D02*
D03*
X239913D02*
D03*
X232039Y-79520D02*
D03*
X330000Y-60000D02*
D03*
Y-80000D02*
D03*
Y-100000D02*
D03*
D17*
X157795Y-63642D02*
D03*
Y-81358D02*
D03*
X132205Y-63642D02*
D03*
Y-81358D02*
D03*
X157795Y-36142D02*
D03*
Y-53858D02*
D03*
X132205Y-36142D02*
D03*
Y-53858D02*
D03*
X115295Y-36142D02*
D03*
Y-53858D02*
D03*
X89705Y-36142D02*
D03*
Y-53858D02*
D03*
X115295Y-63642D02*
D03*
Y-81358D02*
D03*
X89705Y-63642D02*
D03*
Y-81358D02*
D03*
D18*
X13937Y-55000D02*
D03*
D19*
X-9685D02*
D03*
D20*
X62000Y-98000D02*
D03*
X59000Y-68000D02*
D03*
X168000Y-137000D02*
D03*
X174000Y-80000D02*
D03*
X172000Y-131000D02*
D03*
X178000Y-34000D02*
D03*
X179047Y-117047D02*
D03*
X70000Y-98000D02*
D03*
X46000Y-97000D02*
D03*
X52000D02*
D03*
X10000Y-79000D02*
D03*
X51000Y-62000D02*
D03*
X82000Y-136000D02*
D03*
X79000Y-130000D02*
D03*
X85000Y-127000D02*
D03*
Y-142000D02*
D03*
X14000Y-130000D02*
D03*
Y-140000D02*
D03*
X79000Y-145000D02*
D03*
X85000Y-151000D02*
D03*
M02*
